<svg width="100" height="100" viewBox="0 0 100 100" fill="none" xmlns="http://www.w3.org/2000/svg">
<path d="M50.0042 2.65155C36.0065 2.65155 16.913 2.87047 13.0391 3.21481C8.69172 5.82324 0.0860866 15.6978 0 18.2632V22.5675C0 28.0038 5.09162 32.7819 9.70155 32.7819C15.224 32.7819 19.8319 28.1761 19.8319 22.744C19.8319 28.1761 24.3095 32.7819 29.8277 32.7819C35.3932 32.7819 39.6974 28.1804 39.6974 22.744C39.6974 28.1761 44.3883 32.7819 49.9538 32.7819H50.0462C55.6117 32.7819 60.3026 28.1804 60.3026 22.744C60.3026 28.1761 64.6499 32.7819 70.1723 32.7819C75.6948 32.7819 80.1765 28.1804 80.1765 22.744C80.1765 28.1761 84.7844 32.7819 90.3068 32.7819C94.9168 32.7819 100 28.0038 100 22.5675V18.2632C99.9139 15.6978 91.3083 5.82324 86.9609 3.21481C73.4367 2.73703 64.0019 2.65155 50.0042 2.65155ZM39.462 31.6722C34.9295 39.463 23.5425 39.5565 19.1005 31.7226C16.3887 36.4229 10.2507 38.2378 7.62505 37.3468C6.85888 45.5207 6.33026 87.4845 11.8958 94.5221C28.2393 98.3314 72.234 98.2496 88.1126 94.5221C94.5476 87.9623 93.1065 44.9267 92.3834 37.3468C89.7577 38.2378 83.6187 36.4229 80.95 31.7226C76.4606 39.5565 65.0746 39.463 60.5464 31.6722C59.1475 34.2117 55.8882 37.557 50.0042 37.557C45.687 37.7248 41.6184 35.3954 39.462 31.6722ZM30.29 41.3905C33.7335 41.3905 36.8763 41.3925 40.6641 45.6108C46.9054 44.9651 53.103 44.9651 59.3443 45.6108C63.1751 41.4356 66.2749 41.4325 69.7184 41.4325C80.8235 41.4325 83.4959 57.8314 87.4989 71.9496C91.1146 85.0778 86.2857 85.4258 80.3026 85.4258C71.3927 85.0815 66.4481 78.6257 66.4481 72.1261C58.1407 73.5035 44.8807 74.02 33.5603 72.1261C33.5603 78.6257 28.6157 85.0815 19.7058 85.4258C13.7227 85.4258 8.89382 85.0778 12.5095 71.9496C16.5125 57.7453 19.1849 41.4325 30.29 41.4325V41.3905ZM50.0042 53.7739C50.0042 53.7739 42.7127 60.499 41.3955 62.8449L46.1623 62.6684V66.8298C46.1623 67.0794 49.6857 66.8634 50.0042 66.8634C51.9282 66.9366 53.8462 67.0063 53.8462 66.8298V62.6684L58.6129 62.8449C57.2957 60.4947 50.0042 53.7739 50.0042 53.7739Z" fill="white"/>
</svg>
