<svg width="68" height="180" viewBox="0 0 68 180" fill="none" xmlns="http://www.w3.org/2000/svg">
<path d="M53.5 60H52.5V38.9854C52.6655 38.9944 52.8322 39 53 39C53.1678 39 53.3345 38.9944 53.5 38.9854V60ZM53 24C56.3137 24 59 26.6863 59 30C59 33.3137 56.3137 36 53 36C49.6863 36 47 33.3137 47 30C47 26.6863 49.6863 24 53 24ZM53.5 21.0137C53.3345 21.0046 53.1678 21 53 21C52.8322 21 52.6655 21.0046 52.5 21.0137V0H53.5V21.0137Z" fill="white"/>
<path d="M53.5 120H52.5V60H53.5V120Z" fill="white"/>
<path d="M53.5 180H52.5V120H53.5V180Z" fill="white"/>
<path d="M15.804 129.52L33 134.884V136.972L19.884 141.328C19.756 141.368 19.62 141.408 19.476 141.448C19.332 141.48 19.18 141.516 19.02 141.556C19.18 141.596 19.332 141.636 19.476 141.676C19.62 141.716 19.756 141.756 19.884 141.796L33 146.176V148.264L15.804 153.628V151.696C15.804 151.488 15.856 151.316 15.96 151.18C16.064 151.036 16.196 150.944 16.356 150.904L28.308 147.352C28.524 147.296 28.756 147.244 29.004 147.196C29.252 147.14 29.516 147.088 29.796 147.04C29.516 146.984 29.252 146.928 29.004 146.872C28.748 146.808 28.516 146.74 28.308 146.668L16.356 142.624C16.22 142.576 16.096 142.484 15.984 142.348C15.864 142.204 15.804 142.032 15.804 141.832V141.16C15.804 140.952 15.856 140.784 15.96 140.656C16.064 140.528 16.196 140.432 16.356 140.368L28.308 136.336C28.516 136.264 28.74 136.2 28.98 136.144C29.22 136.08 29.472 136.02 29.736 135.964C29.472 135.924 29.22 135.88 28.98 135.832C28.74 135.784 28.516 135.732 28.308 135.676L16.356 132.112C16.212 132.072 16.084 131.984 15.972 131.848C15.86 131.704 15.804 131.532 15.804 131.332V129.52ZM25.596 120.688C25.1 120.688 24.648 120.76 24.24 120.904C23.824 121.04 23.468 121.244 23.172 121.516C22.868 121.78 22.636 122.104 22.476 122.488C22.308 122.872 22.224 123.308 22.224 123.796C22.224 124.82 22.524 125.632 23.124 126.232C23.716 126.824 24.54 127.192 25.596 127.336L25.596 120.688ZM31.296 118.96C31.616 119.224 31.896 119.54 32.136 119.908C32.368 120.276 32.56 120.672 32.712 121.096C32.864 121.512 32.976 121.944 33.048 122.392C33.128 122.84 33.168 123.284 33.168 123.724C33.168 124.564 33.028 125.34 32.748 126.052C32.46 126.756 32.044 127.368 31.5 127.888C30.948 128.4 30.268 128.8 29.46 129.088C28.652 129.376 27.724 129.52 26.676 129.52C25.828 129.52 25.036 129.392 24.3 129.136C23.564 128.872 22.928 128.496 22.392 128.008C21.848 127.52 21.424 126.924 21.12 126.22C20.808 125.516 20.652 124.724 20.652 123.844C20.652 123.116 20.776 122.444 21.024 121.828C21.264 121.204 21.616 120.668 22.08 120.22C22.536 119.764 23.104 119.408 23.784 119.152C24.456 118.896 25.224 118.768 26.088 118.768C26.424 118.768 26.648 118.804 26.76 118.876C26.872 118.948 26.928 119.084 26.928 119.284L26.928 127.408C27.696 127.384 28.364 127.28 28.932 127.096C29.5 126.904 29.976 126.64 30.36 126.304C30.736 125.968 31.02 125.568 31.212 125.104C31.396 124.64 31.488 124.12 31.488 123.544C31.488 123.008 31.428 122.548 31.308 122.164C31.18 121.772 31.044 121.436 30.9 121.156C30.756 120.876 30.624 120.644 30.504 120.46C30.376 120.268 30.312 120.104 30.312 119.968C30.312 119.792 30.38 119.656 30.516 119.56L31.296 118.96ZM23.736 108.224C23.2 108.624 22.828 109.056 22.62 109.52C22.404 109.984 22.296 110.504 22.296 111.08C22.296 112.208 22.7 113.076 23.508 113.684C24.316 114.292 25.468 114.596 26.964 114.596C27.756 114.596 28.436 114.528 29.004 114.392C29.564 114.256 30.028 114.056 30.396 113.792C30.756 113.528 31.02 113.204 31.188 112.82C31.356 112.436 31.44 112 31.44 111.512C31.44 110.808 31.28 110.196 30.96 109.676C30.64 109.148 30.188 108.664 29.604 108.224H23.736ZM15.324 106.088H33V107.36C33 107.664 32.852 107.856 32.556 107.936L31.08 108.128C31.704 108.648 32.208 109.24 32.592 109.904C32.976 110.568 33.168 111.336 33.168 112.208C33.168 112.904 33.036 113.536 32.772 114.104C32.5 114.672 32.104 115.156 31.584 115.556C31.064 115.956 30.416 116.264 29.64 116.48C28.864 116.696 27.972 116.804 26.964 116.804C26.068 116.804 25.236 116.684 24.468 116.444C23.692 116.204 23.02 115.86 22.452 115.412C21.884 114.964 21.44 114.416 21.12 113.768C20.792 113.112 20.628 112.376 20.628 111.56C20.628 110.816 20.756 110.18 21.012 109.652C21.26 109.116 21.608 108.64 22.056 108.224H15.324V106.088ZM22.608 100.698C22.312 100.434 22.044 100.154 21.804 99.8582C21.564 99.5622 21.36 99.2502 21.192 98.9222C21.016 98.5862 20.884 98.2342 20.796 97.8662C20.7 97.4902 20.652 97.0862 20.652 96.6542C20.652 95.9902 20.764 95.4062 20.988 94.9022C21.204 94.3902 21.516 93.9662 21.924 93.6302C22.324 93.2862 22.808 93.0262 23.376 92.8502C23.944 92.6742 24.572 92.5862 25.26 92.5862H33V94.7342H25.26C24.34 94.7342 23.628 94.9462 23.124 95.3702C22.612 95.7862 22.356 96.4222 22.356 97.2782C22.356 97.9102 22.508 98.5022 22.812 99.0542C23.116 99.5982 23.528 100.102 24.048 100.566H33V102.714H20.844V101.43C20.844 101.126 20.992 100.938 21.288 100.866L22.608 100.698ZM25.596 81.1954C25.1 81.1954 24.648 81.2674 24.24 81.4114C23.824 81.5474 23.468 81.7514 23.172 82.0234C22.868 82.2874 22.636 82.6114 22.476 82.9954C22.308 83.3794 22.224 83.8154 22.224 84.3034C22.224 85.3274 22.524 86.1394 23.124 86.7394C23.716 87.3314 24.54 87.6994 25.596 87.8434V81.1954ZM31.296 79.4674C31.616 79.7314 31.896 80.0474 32.136 80.4154C32.368 80.7834 32.56 81.1794 32.712 81.6034C32.864 82.0194 32.976 82.4514 33.048 82.8994C33.128 83.3474 33.168 83.7914 33.168 84.2314C33.168 85.0714 33.028 85.8474 32.748 86.5594C32.46 87.2634 32.044 87.8754 31.5 88.3954C30.948 88.9074 30.268 89.3074 29.46 89.5954C28.652 89.8834 27.724 90.0274 26.676 90.0274C25.828 90.0274 25.036 89.8994 24.3 89.6434C23.564 89.3794 22.928 89.0034 22.392 88.5154C21.848 88.0274 21.424 87.4314 21.12 86.7274C20.808 86.0234 20.652 85.2314 20.652 84.3514C20.652 83.6234 20.776 82.9514 21.024 82.3354C21.264 81.7114 21.616 81.1754 22.08 80.7274C22.536 80.2714 23.104 79.9154 23.784 79.6594C24.456 79.4034 25.224 79.2754 26.088 79.2754C26.424 79.2754 26.648 79.3114 26.76 79.3834C26.872 79.4554 26.928 79.5914 26.928 79.7914V87.9154C27.696 87.8914 28.364 87.7874 28.932 87.6034C29.5 87.4114 29.976 87.1474 30.36 86.8114C30.736 86.4754 31.02 86.0754 31.212 85.6114C31.396 85.1474 31.488 84.6274 31.488 84.0514C31.488 83.5154 31.428 83.0554 31.308 82.6714C31.18 82.2794 31.044 81.9434 30.9 81.6634C30.756 81.3834 30.624 81.1514 30.504 80.9674C30.376 80.7754 30.312 80.6114 30.312 80.4754C30.312 80.2994 30.38 80.1634 30.516 80.0674L31.296 79.4674ZM22.848 69.5717C23.024 69.6677 23.112 69.8157 23.112 70.0157C23.112 70.1357 23.068 70.2717 22.98 70.4237C22.892 70.5757 22.796 70.7637 22.692 70.9877C22.58 71.2037 22.48 71.4637 22.392 71.7677C22.296 72.0717 22.248 72.4317 22.248 72.8477C22.248 73.2077 22.296 73.5317 22.392 73.8197C22.48 74.1077 22.604 74.3557 22.764 74.5637C22.924 74.7637 23.112 74.9197 23.328 75.0317C23.536 75.1357 23.764 75.1877 24.012 75.1877C24.324 75.1877 24.584 75.0997 24.792 74.9237C25 74.7397 25.18 74.4997 25.332 74.2037C25.484 73.9077 25.62 73.5717 25.74 73.1957C25.852 72.8197 25.976 72.4357 26.112 72.0437C26.24 71.6437 26.384 71.2557 26.544 70.8797C26.704 70.5037 26.904 70.1677 27.144 69.8717C27.384 69.5757 27.68 69.3397 28.032 69.1637C28.376 68.9797 28.792 68.8877 29.28 68.8877C29.84 68.8877 30.36 68.9877 30.84 69.1877C31.312 69.3877 31.724 69.6837 32.076 70.0757C32.42 70.4677 32.692 70.9477 32.892 71.5157C33.092 72.0837 33.192 72.7397 33.192 73.4837C33.192 74.3317 33.056 75.0997 32.784 75.7877C32.504 76.4757 32.148 77.0597 31.716 77.5397L30.9 77.0357C30.796 76.9717 30.716 76.8957 30.66 76.8077C30.604 76.7197 30.576 76.6077 30.576 76.4717C30.576 76.3277 30.632 76.1757 30.744 76.0157C30.856 75.8557 30.98 75.6637 31.116 75.4397C31.252 75.2077 31.376 74.9277 31.488 74.5997C31.6 74.2717 31.656 73.8637 31.656 73.3757C31.656 72.9597 31.604 72.5957 31.5 72.2838C31.388 71.9717 31.24 71.7117 31.056 71.5037C30.872 71.2957 30.66 71.1437 30.42 71.0477C30.18 70.9437 29.924 70.8917 29.652 70.8917C29.316 70.8917 29.04 70.9837 28.824 71.1677C28.6 71.3437 28.412 71.5797 28.26 71.8757C28.1 72.1717 27.964 72.5117 27.852 72.8957C27.732 73.2717 27.608 73.6597 27.48 74.0597C27.352 74.4517 27.208 74.8397 27.048 75.2237C26.88 75.5997 26.672 75.9357 26.424 76.2317C26.176 76.5277 25.872 76.7677 25.512 76.9517C25.144 77.1277 24.7 77.2157 24.18 77.2157C23.716 77.2157 23.272 77.1197 22.848 76.9277C22.416 76.7357 22.04 76.4557 21.72 76.0877C21.392 75.7197 21.132 75.2677 20.94 74.7317C20.748 74.1957 20.652 73.5837 20.652 72.8957C20.652 72.0957 20.78 71.3797 21.036 70.7477C21.284 70.1077 21.628 69.5557 22.068 69.0917L22.848 69.5717ZM23.736 58.3489C23.2 58.7489 22.828 59.1809 22.62 59.6449C22.404 60.1089 22.296 60.6289 22.296 61.2049C22.296 62.3329 22.7 63.2009 23.508 63.8089C24.316 64.4169 25.468 64.7209 26.964 64.7209C27.756 64.7209 28.436 64.6529 29.004 64.5169C29.564 64.3809 30.028 64.1809 30.396 63.9169C30.756 63.6529 31.02 63.3289 31.188 62.9449C31.356 62.5609 31.44 62.1249 31.44 61.6369C31.44 60.9329 31.28 60.3209 30.96 59.8009C30.64 59.2729 30.188 58.7889 29.604 58.3489H23.736ZM15.324 56.2129H33V57.4849C33 57.7889 32.852 57.9809 32.556 58.0609L31.08 58.2529C31.704 58.7729 32.208 59.3649 32.592 60.0289C32.976 60.6929 33.168 61.4609 33.168 62.3329C33.168 63.0289 33.036 63.6609 32.772 64.2289C32.5 64.7969 32.104 65.2809 31.584 65.6809C31.064 66.0809 30.416 66.3889 29.64 66.6049C28.864 66.8209 27.972 66.9289 26.964 66.9289C26.068 66.9289 25.236 66.8089 24.468 66.5689C23.692 66.3289 23.02 65.9849 22.452 65.5369C21.884 65.0889 21.44 64.5409 21.12 63.8929C20.792 63.2369 20.628 62.5009 20.628 61.6849C20.628 60.9409 20.756 60.3049 21.012 59.7769C21.26 59.2409 21.608 58.7649 22.056 58.3489H15.324V56.2129ZM27.528 46.2512C27.56 47.2352 27.64 48.0752 27.768 48.7712C27.888 49.4592 28.048 50.0232 28.248 50.4632C28.448 50.8952 28.684 51.2112 28.956 51.4112C29.228 51.6032 29.532 51.6992 29.868 51.6992C30.188 51.6992 30.464 51.6472 30.696 51.5432C30.928 51.4392 31.12 51.2992 31.272 51.1232C31.416 50.9392 31.524 50.7272 31.596 50.4872C31.66 50.2392 31.692 49.9752 31.692 49.6952C31.692 49.3192 31.656 48.9752 31.584 48.6632C31.504 48.3512 31.392 48.0592 31.248 47.7872C31.104 47.5072 30.932 47.2432 30.732 46.9952C30.532 46.7392 30.304 46.4912 30.048 46.2512H27.528ZM22.56 53.1512C21.912 52.4792 21.428 51.7552 21.108 50.9792C20.788 50.2032 20.628 49.3432 20.628 48.3992C20.628 47.7192 20.74 47.1152 20.964 46.5872C21.188 46.0592 21.5 45.6152 21.9 45.2552C22.3 44.8952 22.784 44.6232 23.352 44.4392C23.92 44.2552 24.544 44.1632 25.224 44.1632H33V45.1112C33 45.3192 32.968 45.4792 32.904 45.5912C32.832 45.7032 32.696 45.7912 32.496 45.8552L31.344 46.0952C31.64 46.4152 31.904 46.7272 32.136 47.0312C32.36 47.3352 32.552 47.6552 32.712 47.9912C32.864 48.3272 32.98 48.6872 33.06 49.0712C33.148 49.4472 33.192 49.8672 33.192 50.3312C33.192 50.8032 33.128 51.2472 33 51.6632C32.864 52.0792 32.664 52.4432 32.4 52.7552C32.136 53.0592 31.804 53.3032 31.404 53.4872C30.996 53.6632 30.516 53.7512 29.964 53.7512C29.484 53.7512 29.024 53.6192 28.584 53.3552C28.136 53.0912 27.74 52.6632 27.396 52.0712C27.052 51.4792 26.772 50.7072 26.556 49.7552C26.332 48.8032 26.204 47.6352 26.172 46.2512H25.224C24.28 46.2512 23.568 46.4552 23.088 46.8632C22.6 47.2712 22.356 47.8672 22.356 48.6512C22.356 49.1792 22.424 49.6232 22.56 49.9832C22.688 50.3352 22.836 50.6432 23.004 50.9072C23.164 51.1632 23.312 51.3872 23.448 51.5792C23.576 51.7632 23.64 51.9472 23.64 52.1312C23.64 52.2752 23.604 52.3992 23.532 52.5032C23.452 52.6072 23.356 52.6952 23.244 52.7673L22.56 53.1512ZM20.844 30.7028L36.588 37.4828C36.748 37.5548 36.876 37.6468 36.972 37.7588C37.068 37.8628 37.116 38.0268 37.116 38.2508V39.8348L32.292 37.6148L20.844 42.6308V40.7828C20.844 40.5988 20.892 40.4548 20.988 40.3508C21.076 40.2388 21.176 40.1628 21.288 40.1228L28.944 36.8708C29.28 36.7428 29.632 36.6348 30 36.5468C29.624 36.4348 29.268 36.3148 28.932 36.1868L21.288 33.0308C21.16 32.9828 21.056 32.9028 20.976 32.7908C20.888 32.6708 20.844 32.5388 20.844 32.3948V30.7028Z" fill="white"/>
</svg>
