<svg width="68" height="180" viewBox="0 0 68 180" fill="none" xmlns="http://www.w3.org/2000/svg">
<path d="M53.5 60H52.5V38.9854C52.6655 38.9944 52.8322 39 53 39C53.1678 39 53.3345 38.9944 53.5 38.9854V60ZM53 24C56.3137 24 59 26.6863 59 30C59 33.3137 56.3137 36 53 36C49.6863 36 47 33.3137 47 30C47 26.6863 49.6863 24 53 24ZM53.5 21.0137C53.3345 21.0046 53.1678 21 53 21C52.8322 21 52.6655 21.0046 52.5 21.0137V0H53.5V21.0137Z" fill="white"/>
<path d="M53.5 120H52.5V60H53.5V120Z" fill="white"/>
<path d="M53.5 180H52.5V120H53.5V180Z" fill="white"/>
<path d="M17.76 114.176V119.744H33V122.06H17.76V127.64H15.804V114.176H17.76ZM22.464 110.191C21.912 109.671 21.472 109.095 21.144 108.463C20.816 107.831 20.652 107.103 20.652 106.279C20.652 105.615 20.764 105.031 20.988 104.527C21.204 104.015 21.516 103.591 21.924 103.255C22.324 102.911 22.808 102.651 23.376 102.475C23.944 102.299 24.572 102.211 25.26 102.211H33V104.359H25.26C24.34 104.359 23.628 104.571 23.124 104.995C22.612 105.411 22.356 106.047 22.356 106.903C22.356 107.535 22.508 108.127 22.812 108.679C23.116 109.223 23.528 109.727 24.048 110.191H33V112.339H15.324V110.191H22.464ZM20.844 88.9604H33V90.2324C33 90.5364 32.852 90.7284 32.556 90.8084L31.248 90.9764C31.832 91.5044 32.304 92.0964 32.664 92.7524C33.016 93.4084 33.192 94.1604 33.192 95.0084C33.192 95.6724 33.084 96.2604 32.868 96.7724C32.644 97.2764 32.332 97.7004 31.932 98.0444C31.532 98.3884 31.048 98.6484 30.48 98.8244C29.912 98.9924 29.284 99.0764 28.596 99.0764H20.844V96.9404H28.596C29.516 96.9404 30.228 96.7324 30.732 96.3164C31.236 95.8924 31.488 95.2484 31.488 94.3844C31.488 93.7524 31.34 93.1644 31.044 92.6204C30.74 92.0684 30.324 91.5604 29.796 91.0964H20.844V88.9604ZM23.28 83.5456C22.448 83.1616 21.8 82.6896 21.336 82.1296C20.864 81.5696 20.628 80.8856 20.628 80.0776C20.628 79.8216 20.656 79.5776 20.712 79.3456C20.768 79.1056 20.856 78.8936 20.976 78.7096L22.572 78.8656C22.772 78.9136 22.872 79.0336 22.872 79.2256C22.872 79.3376 22.848 79.5016 22.8 79.7176C22.752 79.9336 22.728 80.1776 22.728 80.4496C22.728 80.8336 22.784 81.1776 22.896 81.4816C23.008 81.7776 23.176 82.0456 23.4 82.2856C23.616 82.5176 23.888 82.7296 24.216 82.9216C24.536 83.1056 24.904 83.2736 25.32 83.4256H33V85.5736H20.844L20.844 84.3496C20.844 84.1176 20.888 83.9576 20.976 83.8696C21.064 83.7816 21.216 83.7216 21.432 83.6896L23.28 83.5456ZM22.848 69.8217C23.024 69.9177 23.112 70.0657 23.112 70.2657C23.112 70.3857 23.068 70.5217 22.98 70.6737C22.892 70.8257 22.796 71.0137 22.692 71.2377C22.58 71.4537 22.48 71.7137 22.392 72.0177C22.296 72.3217 22.248 72.6817 22.248 73.0977C22.248 73.4577 22.296 73.7817 22.392 74.0697C22.48 74.3577 22.604 74.6057 22.764 74.8137C22.924 75.0137 23.112 75.1697 23.328 75.2817C23.536 75.3857 23.764 75.4377 24.012 75.4377C24.324 75.4377 24.584 75.3497 24.792 75.1737C25 74.9897 25.18 74.7497 25.332 74.4537C25.484 74.1577 25.62 73.8217 25.74 73.4457C25.852 73.0697 25.976 72.6857 26.112 72.2937C26.24 71.8937 26.384 71.5057 26.544 71.1297C26.704 70.7537 26.904 70.4177 27.144 70.1217C27.384 69.8257 27.68 69.5897 28.032 69.4137C28.376 69.2297 28.792 69.1377 29.28 69.1377C29.84 69.1377 30.36 69.2377 30.84 69.4377C31.312 69.6377 31.724 69.9337 32.076 70.3257C32.42 70.7177 32.692 71.1977 32.892 71.7657C33.092 72.3337 33.192 72.9897 33.192 73.7337C33.192 74.5817 33.056 75.3497 32.784 76.0377C32.504 76.7257 32.148 77.3097 31.716 77.7897L30.9 77.2857C30.796 77.2217 30.716 77.1457 30.66 77.0577C30.604 76.9697 30.576 76.8577 30.576 76.7217C30.576 76.5777 30.632 76.4257 30.744 76.2657C30.856 76.1057 30.98 75.9137 31.116 75.6897C31.252 75.4577 31.376 75.1777 31.488 74.8497C31.6 74.5217 31.656 74.1137 31.656 73.6257C31.656 73.2097 31.604 72.8457 31.5 72.5338C31.388 72.2217 31.24 71.9617 31.056 71.7537C30.872 71.5457 30.66 71.3937 30.42 71.2977C30.18 71.1937 29.924 71.1417 29.652 71.1417C29.316 71.1417 29.04 71.2337 28.824 71.4177C28.6 71.5937 28.412 71.8297 28.26 72.1257C28.1 72.4217 27.964 72.7617 27.852 73.1457C27.732 73.5217 27.608 73.9097 27.48 74.3097C27.352 74.7017 27.208 75.0897 27.048 75.4737C26.88 75.8497 26.672 76.1857 26.424 76.4817C26.176 76.7777 25.872 77.0177 25.512 77.2017C25.144 77.3777 24.7 77.4657 24.18 77.4657C23.716 77.4657 23.272 77.3697 22.848 77.1777C22.416 76.9857 22.04 76.7057 21.72 76.3377C21.392 75.9697 21.132 75.5177 20.94 74.9817C20.748 74.4457 20.652 73.8337 20.652 73.1457C20.652 72.3457 20.78 71.6297 21.036 70.9977C21.284 70.3577 21.628 69.8057 22.068 69.3417L22.848 69.8217ZM23.736 58.5989C23.2 58.9989 22.828 59.4309 22.62 59.8949C22.404 60.3589 22.296 60.8789 22.296 61.4549C22.296 62.5829 22.7 63.4509 23.508 64.0589C24.316 64.6669 25.468 64.9709 26.964 64.9709C27.756 64.9709 28.436 64.9029 29.004 64.7669C29.564 64.6309 30.028 64.4309 30.396 64.1669C30.756 63.9029 31.02 63.5789 31.188 63.1949C31.356 62.8109 31.44 62.3749 31.44 61.8869C31.44 61.1829 31.28 60.5709 30.96 60.0509C30.64 59.5229 30.188 59.0389 29.604 58.5989H23.736ZM15.324 56.4629H33V57.7349C33 58.0389 32.852 58.2309 32.556 58.3109L31.08 58.5029C31.704 59.0229 32.208 59.6149 32.592 60.2789C32.976 60.9429 33.168 61.7109 33.168 62.5829C33.168 63.2789 33.036 63.9109 32.772 64.4789C32.5 65.0469 32.104 65.5309 31.584 65.9309C31.064 66.3309 30.416 66.6389 29.64 66.8549C28.864 67.0709 27.972 67.1789 26.964 67.1789C26.068 67.1789 25.236 67.0589 24.468 66.8189C23.692 66.5789 23.02 66.2349 22.452 65.7869C21.884 65.3389 21.44 64.7909 21.12 64.1429C20.792 63.4869 20.628 62.7509 20.628 61.9349C20.628 61.1909 20.756 60.5549 21.012 60.0269C21.26 59.4909 21.608 59.0149 22.056 58.5989H15.324V56.4629ZM27.528 46.5012C27.56 47.4852 27.64 48.3252 27.768 49.0212C27.888 49.7092 28.048 50.2732 28.248 50.7132C28.448 51.1452 28.684 51.4612 28.956 51.6612C29.228 51.8532 29.532 51.9492 29.868 51.9492C30.188 51.9492 30.464 51.8972 30.696 51.7932C30.928 51.6892 31.12 51.5492 31.272 51.3732C31.416 51.1892 31.524 50.9772 31.596 50.7372C31.66 50.4892 31.692 50.2252 31.692 49.9452C31.692 49.5692 31.656 49.2252 31.584 48.9132C31.504 48.6012 31.392 48.3092 31.248 48.0372C31.104 47.7572 30.932 47.4932 30.732 47.2452C30.532 46.9892 30.304 46.7412 30.048 46.5012H27.528ZM22.56 53.4012C21.912 52.7292 21.428 52.0052 21.108 51.2292C20.788 50.4532 20.628 49.5932 20.628 48.6492C20.628 47.9692 20.74 47.3652 20.964 46.8372C21.188 46.3092 21.5 45.8652 21.9 45.5052C22.3 45.1452 22.784 44.8732 23.352 44.6892C23.92 44.5052 24.544 44.4132 25.224 44.4132H33V45.3612C33 45.5692 32.968 45.7292 32.904 45.8412C32.832 45.9532 32.696 46.0412 32.496 46.1052L31.344 46.3452C31.64 46.6652 31.904 46.9772 32.136 47.2812C32.36 47.5852 32.552 47.9052 32.712 48.2412C32.864 48.5772 32.98 48.9372 33.06 49.3212C33.148 49.6972 33.192 50.1172 33.192 50.5812C33.192 51.0532 33.128 51.4972 33 51.9132C32.864 52.3292 32.664 52.6932 32.4 53.0052C32.136 53.3092 31.804 53.5532 31.404 53.7372C30.996 53.9132 30.516 54.0012 29.964 54.0012C29.484 54.0012 29.024 53.8692 28.584 53.6052C28.136 53.3412 27.74 52.9132 27.396 52.3212C27.052 51.7292 26.772 50.9572 26.556 50.0052C26.332 49.0532 26.204 47.8852 26.172 46.5012H25.224C24.28 46.5012 23.568 46.7052 23.088 47.1132C22.6 47.5212 22.356 48.1172 22.356 48.9012C22.356 49.4292 22.424 49.8732 22.56 50.2332C22.688 50.5852 22.836 50.8932 23.004 51.1572C23.164 51.4132 23.312 51.6372 23.448 51.8292C23.576 52.0132 23.64 52.1972 23.64 52.3812C23.64 52.5252 23.604 52.6492 23.532 52.7532C23.452 52.8572 23.356 52.9452 23.244 53.0173L22.56 53.4012ZM20.844 30.9528L36.588 37.7328C36.748 37.8048 36.876 37.8968 36.972 38.0088C37.068 38.1128 37.116 38.2768 37.116 38.5008V40.0848L32.292 37.8648L20.844 42.8808V41.0328C20.844 40.8488 20.892 40.7048 20.988 40.6008C21.076 40.4888 21.176 40.4128 21.288 40.3728L28.944 37.1208C29.28 36.9928 29.632 36.8848 30 36.7968C29.624 36.6848 29.268 36.5648 28.932 36.4368L21.288 33.2808C21.16 33.2328 21.056 33.1528 20.976 33.0408C20.888 32.9208 20.844 32.7888 20.844 32.6448V30.9528Z" fill="white"/>
</svg>
