<svg width="68" height="180" viewBox="0 0 68 180" fill="none" xmlns="http://www.w3.org/2000/svg">
<path d="M53.5 60H52.5V38.9854C52.6655 38.9944 52.8322 39 53 39C53.1678 39 53.3345 38.9944 53.5 38.9854V60ZM53 24C56.3137 24 59 26.6863 59 30C59 33.3137 56.3137 36 53 36C49.6863 36 47 33.3137 47 30C47 26.6863 49.6863 24 53 24ZM53.5 21.0137C53.3345 21.0046 53.1678 21 53 21C52.8322 21 52.6655 21.0046 52.5 21.0137V0H53.5V21.0137Z" fill="white"/>
<path d="M53.5 120H52.5V60H53.5V120Z" fill="white"/>
<path d="M53.5 180H52.5V120H53.5V180Z" fill="white"/>
<path d="M17.76 102.176V107.744H33V110.06H17.76V115.64H15.804V102.176H17.76ZM20.844 92.6401H33V93.9121C33 94.2161 32.852 94.4081 32.556 94.4881L31.248 94.6561C31.832 95.1841 32.304 95.7761 32.664 96.4321C33.016 97.0881 33.192 97.8401 33.192 98.6881C33.192 99.3521 33.084 99.9401 32.868 100.452C32.644 100.956 32.332 101.38 31.932 101.724C31.532 102.068 31.048 102.328 30.48 102.504C29.912 102.672 29.284 102.756 28.596 102.756H20.844V100.62H28.596C29.516 100.62 30.228 100.412 30.732 99.9961C31.236 99.5721 31.488 98.9281 31.488 98.0641C31.488 97.4321 31.34 96.8441 31.044 96.3001C30.74 95.7481 30.324 95.2401 29.796 94.7761H20.844V92.6401ZM25.596 81.1173C25.1 81.1173 24.648 81.1893 24.24 81.3333C23.824 81.4693 23.468 81.6733 23.172 81.9453C22.868 82.2093 22.636 82.5333 22.476 82.9173C22.308 83.3013 22.224 83.7373 22.224 84.2253C22.224 85.2493 22.524 86.0613 23.124 86.6613C23.716 87.2533 24.54 87.6213 25.596 87.7653L25.596 81.1173ZM31.296 79.3893C31.616 79.6533 31.896 79.9693 32.136 80.3373C32.368 80.7053 32.56 81.1013 32.712 81.5253C32.864 81.9413 32.976 82.3733 33.048 82.8213C33.128 83.2693 33.168 83.7133 33.168 84.1533C33.168 84.9933 33.028 85.7693 32.748 86.4813C32.46 87.1853 32.044 87.7973 31.5 88.3173C30.948 88.8293 30.268 89.2293 29.46 89.5173C28.652 89.8053 27.724 89.9493 26.676 89.9493C25.828 89.9493 25.036 89.8213 24.3 89.5653C23.564 89.3013 22.928 88.9253 22.392 88.4373C21.848 87.9493 21.424 87.3533 21.12 86.6493C20.808 85.9453 20.652 85.1533 20.652 84.2733C20.652 83.5453 20.776 82.8733 21.024 82.2573C21.264 81.6333 21.616 81.0973 22.08 80.6493C22.536 80.1933 23.104 79.8373 23.784 79.5813C24.456 79.3253 25.224 79.1973 26.088 79.1973C26.424 79.1973 26.648 79.2333 26.76 79.3053C26.872 79.3773 26.928 79.5133 26.928 79.7133L26.928 87.8373C27.696 87.8133 28.364 87.7093 28.932 87.5253C29.5 87.3333 29.976 87.0693 30.36 86.7333C30.736 86.3973 31.02 85.9973 31.212 85.5333C31.396 85.0693 31.488 84.5493 31.488 83.9733C31.488 83.4373 31.428 82.9773 31.308 82.5933C31.18 82.2013 31.044 81.8653 30.9 81.5853C30.756 81.3053 30.624 81.0733 30.504 80.8893C30.376 80.6973 30.312 80.5333 30.312 80.3973C30.312 80.2213 30.38 80.0853 30.516 79.9893L31.296 79.3893ZM22.848 69.4936C23.024 69.5896 23.112 69.7376 23.112 69.9376C23.112 70.0576 23.068 70.1936 22.98 70.3456C22.892 70.4976 22.796 70.6856 22.692 70.9096C22.58 71.1256 22.48 71.3856 22.392 71.6896C22.296 71.9936 22.248 72.3536 22.248 72.7696C22.248 73.1296 22.296 73.4536 22.392 73.7416C22.48 74.0296 22.604 74.2776 22.764 74.4856C22.924 74.6856 23.112 74.8416 23.328 74.9536C23.536 75.0576 23.764 75.1096 24.012 75.1096C24.324 75.1096 24.584 75.0216 24.792 74.8456C25 74.6616 25.18 74.4216 25.332 74.1256C25.484 73.8296 25.62 73.4936 25.74 73.1176C25.852 72.7416 25.976 72.3576 26.112 71.9656C26.24 71.5656 26.384 71.1776 26.544 70.8016C26.704 70.4256 26.904 70.0896 27.144 69.7936C27.384 69.4976 27.68 69.2616 28.032 69.0856C28.376 68.9016 28.792 68.8096 29.28 68.8096C29.84 68.8096 30.36 68.9096 30.84 69.1096C31.312 69.3096 31.724 69.6056 32.076 69.9976C32.42 70.3896 32.692 70.8696 32.892 71.4376C33.092 72.0056 33.192 72.6616 33.192 73.4056C33.192 74.2536 33.056 75.0216 32.784 75.7096C32.504 76.3976 32.148 76.9816 31.716 77.4616L30.9 76.9576C30.796 76.8936 30.716 76.8176 30.66 76.7296C30.604 76.6416 30.576 76.5296 30.576 76.3936C30.576 76.2496 30.632 76.0976 30.744 75.9376C30.856 75.7776 30.98 75.5856 31.116 75.3616C31.252 75.1296 31.376 74.8496 31.488 74.5216C31.6 74.1936 31.656 73.7856 31.656 73.2976C31.656 72.8816 31.604 72.5176 31.5 72.2056C31.388 71.8936 31.24 71.6336 31.056 71.4256C30.872 71.2176 30.66 71.0656 30.42 70.9696C30.18 70.8656 29.924 70.8136 29.652 70.8136C29.316 70.8136 29.04 70.9056 28.824 71.0896C28.6 71.2656 28.412 71.5016 28.26 71.7976C28.1 72.0936 27.964 72.4336 27.852 72.8176C27.732 73.1936 27.608 73.5816 27.48 73.9816C27.352 74.3736 27.208 74.7616 27.048 75.1456C26.88 75.5216 26.672 75.8576 26.424 76.1536C26.176 76.4496 25.872 76.6896 25.512 76.8736C25.144 77.0496 24.7 77.1376 24.18 77.1376C23.716 77.1376 23.272 77.0416 22.848 76.8496C22.416 76.6576 22.04 76.3776 21.72 76.0096C21.392 75.6416 21.132 75.1896 20.94 74.6536C20.748 74.1176 20.652 73.5056 20.652 72.8176C20.652 72.0176 20.78 71.3016 21.036 70.6696C21.284 70.0296 21.628 69.4776 22.068 69.0136L22.848 69.4936ZM23.736 58.2708C23.2 58.6708 22.828 59.1028 22.62 59.5668C22.404 60.0308 22.296 60.5508 22.296 61.1268C22.296 62.2548 22.7 63.1228 23.508 63.7308C24.316 64.3388 25.468 64.6428 26.964 64.6428C27.756 64.6428 28.436 64.5748 29.004 64.4388C29.564 64.3028 30.028 64.1028 30.396 63.8388C30.756 63.5748 31.02 63.2508 31.188 62.8668C31.356 62.4828 31.44 62.0468 31.44 61.5588C31.44 60.8548 31.28 60.2428 30.96 59.7228C30.64 59.1948 30.188 58.7108 29.604 58.2708H23.736ZM15.324 56.1348H33V57.4068C33 57.7108 32.852 57.9028 32.556 57.9828L31.08 58.1748C31.704 58.6948 32.208 59.2868 32.592 59.9508C32.976 60.6148 33.168 61.3828 33.168 62.2548C33.168 62.9508 33.036 63.5828 32.772 64.1508C32.5 64.7188 32.104 65.2028 31.584 65.6028C31.064 66.0028 30.416 66.3108 29.64 66.5268C28.864 66.7428 27.972 66.8508 26.964 66.8508C26.068 66.8508 25.236 66.7308 24.468 66.4908C23.692 66.2508 23.02 65.9068 22.452 65.4588C21.884 65.0108 21.44 64.4628 21.12 63.8148C20.792 63.1588 20.628 62.4228 20.628 61.6068C20.628 60.8628 20.756 60.2268 21.012 59.6988C21.26 59.1628 21.608 58.6868 22.056 58.2708H15.324V56.1348ZM27.528 46.1731C27.56 47.1571 27.64 47.9971 27.768 48.6931C27.888 49.3811 28.048 49.9451 28.248 50.3851C28.448 50.8171 28.684 51.1331 28.956 51.3331C29.228 51.5251 29.532 51.6211 29.868 51.6211C30.188 51.6211 30.464 51.5691 30.696 51.4651C30.928 51.3611 31.12 51.2211 31.272 51.0451C31.416 50.8611 31.524 50.6491 31.596 50.4091C31.66 50.1611 31.692 49.8971 31.692 49.6171C31.692 49.2411 31.656 48.8971 31.584 48.5851C31.504 48.2731 31.392 47.9811 31.248 47.7091C31.104 47.4291 30.932 47.1651 30.732 46.9171C30.532 46.6611 30.304 46.4131 30.048 46.1731H27.528ZM22.56 53.0731C21.912 52.4011 21.428 51.6771 21.108 50.9011C20.788 50.1251 20.628 49.2651 20.628 48.3211C20.628 47.6411 20.74 47.0371 20.964 46.5091C21.188 45.9811 21.5 45.5371 21.9 45.1771C22.3 44.8171 22.784 44.5451 23.352 44.3611C23.92 44.1771 24.544 44.0851 25.224 44.0851H33V45.0331C33 45.2411 32.968 45.4011 32.904 45.5131C32.832 45.6251 32.696 45.7131 32.496 45.7771L31.344 46.0171C31.64 46.3371 31.904 46.6491 32.136 46.9531C32.36 47.2571 32.552 47.5771 32.712 47.9131C32.864 48.2491 32.98 48.6091 33.06 48.9931C33.148 49.3691 33.192 49.7891 33.192 50.2531C33.192 50.7251 33.128 51.1691 33 51.5851C32.864 52.0011 32.664 52.3651 32.4 52.6771C32.136 52.9811 31.804 53.2251 31.404 53.4091C30.996 53.5851 30.516 53.6731 29.964 53.6731C29.484 53.6731 29.024 53.5411 28.584 53.2771C28.136 53.0131 27.74 52.5851 27.396 51.9931C27.052 51.4011 26.772 50.6291 26.556 49.6771C26.332 48.7251 26.204 47.5571 26.172 46.1731H25.224C24.28 46.1731 23.568 46.3771 23.088 46.7851C22.6 47.1931 22.356 47.7891 22.356 48.5731C22.356 49.1011 22.424 49.5451 22.56 49.9051C22.688 50.2571 22.836 50.5651 23.004 50.8291C23.164 51.0851 23.312 51.3091 23.448 51.5011C23.576 51.6851 23.64 51.8691 23.64 52.0531C23.64 52.1971 23.604 52.3211 23.532 52.4251C23.452 52.5291 23.356 52.6171 23.244 52.6891L22.56 53.0731ZM20.844 30.6247L36.588 37.4047C36.748 37.4767 36.876 37.5687 36.972 37.6807C37.068 37.7847 37.116 37.9487 37.116 38.1727V39.7567L32.292 37.5367L20.844 42.5527V40.7047C20.844 40.5207 20.892 40.3767 20.988 40.2727C21.076 40.1607 21.176 40.0847 21.288 40.0447L28.944 36.7927C29.28 36.6647 29.632 36.5567 30 36.4687C29.624 36.3567 29.268 36.2367 28.932 36.1087L21.288 32.9527C21.16 32.9047 21.056 32.8247 20.976 32.7127C20.888 32.5927 20.844 32.4607 20.844 32.3167V30.6247Z" fill="white"/>
</svg>
