<svg width="68" height="180" viewBox="0 0 68 180" fill="none" xmlns="http://www.w3.org/2000/svg">
<path d="M53.5 60H52.5V38.9854C52.6655 38.9944 52.8322 39 53 39C53.1678 39 53.3345 38.9944 53.5 38.9854V60ZM53 24C56.3137 24 59 26.6863 59 30C59 33.3137 56.3137 36 53 36C49.6863 36 47 33.3137 47 30C47 26.6863 49.6863 24 53 24ZM53.5 21.0137C53.3345 21.0046 53.1678 21 53 21C52.8322 21 52.6655 21.0046 52.5 21.0137V0H53.5V21.0137Z" fill="white"/>
<path d="M53.5 120H52.5V60H53.5V120Z" fill="white"/>
<path d="M53.5 180H52.5V120H53.5V180Z" fill="white"/>
<path d="M17.7 90.476H23.712V83.408H25.608V90.476H33V92.804H15.804V82.208H17.7V90.476ZM23.28 78.7409C22.448 78.3569 21.8 77.8849 21.336 77.3249C20.864 76.7649 20.628 76.0809 20.628 75.2729C20.628 75.0169 20.656 74.7729 20.712 74.5409C20.768 74.3009 20.856 74.0889 20.976 73.9049L22.572 74.0609C22.772 74.1089 22.872 74.2289 22.872 74.4209C22.872 74.5329 22.848 74.6969 22.8 74.9129C22.752 75.1289 22.728 75.3729 22.728 75.6449C22.728 76.0289 22.784 76.3729 22.896 76.6769C23.008 76.9729 23.176 77.2409 23.4 77.4809C23.616 77.7129 23.888 77.9249 24.216 78.1169C24.536 78.3009 24.904 78.4689 25.32 78.6209H33V80.7689H20.844V79.5449C20.844 79.3129 20.888 79.1529 20.976 79.0649C21.064 78.9769 21.216 78.9169 21.432 78.8849L23.28 78.7409ZM20.844 69.7707H33V71.9067H20.844V69.7707ZM17.028 69.3147C17.236 69.3147 17.432 69.3587 17.616 69.4467C17.792 69.5267 17.952 69.6387 18.096 69.7827C18.232 69.9187 18.34 70.0827 18.42 70.2747C18.5 70.4588 18.54 70.6547 18.54 70.8627C18.54 71.0707 18.5 71.2667 18.42 71.4507C18.34 71.6267 18.232 71.7827 18.096 71.9187C17.952 72.0547 17.792 72.1627 17.616 72.2427C17.432 72.3227 17.236 72.3627 17.028 72.3627C16.82 72.3627 16.624 72.3227 16.44 72.2427C16.248 72.1627 16.084 72.0547 15.948 71.9187C15.804 71.7827 15.692 71.6267 15.612 71.4507C15.532 71.2667 15.492 71.0707 15.492 70.8627C15.492 70.6547 15.532 70.4588 15.612 70.2747C15.692 70.0827 15.804 69.9187 15.948 69.7827C16.084 69.6387 16.248 69.5267 16.44 69.4467C16.624 69.3587 16.82 69.3147 17.028 69.3147ZM23.736 58.3411C23.2 58.7411 22.828 59.1731 22.62 59.6371C22.404 60.1011 22.296 60.6211 22.296 61.1971C22.296 62.3251 22.7 63.1931 23.508 63.8011C24.316 64.4091 25.468 64.7131 26.964 64.7131C27.756 64.7131 28.436 64.6451 29.004 64.5091C29.564 64.3731 30.028 64.1731 30.396 63.9091C30.756 63.6451 31.02 63.3211 31.188 62.9371C31.356 62.5531 31.44 62.1171 31.44 61.6291C31.44 60.9251 31.28 60.3131 30.96 59.7931C30.64 59.2651 30.188 58.7811 29.604 58.3411H23.736ZM15.324 56.2051H33V57.4771C33 57.7811 32.852 57.9731 32.556 58.0531L31.08 58.2451C31.704 58.7651 32.208 59.3571 32.592 60.0211C32.976 60.6851 33.168 61.4531 33.168 62.3251C33.168 63.0211 33.036 63.6531 32.772 64.2211C32.5 64.7891 32.104 65.2731 31.584 65.6731C31.064 66.0731 30.416 66.3811 29.64 66.5971C28.864 66.8131 27.972 66.9211 26.964 66.9211C26.068 66.9211 25.236 66.8011 24.468 66.5611C23.692 66.3211 23.02 65.9771 22.452 65.5291C21.884 65.0811 21.44 64.5331 21.12 63.8851C20.792 63.2291 20.628 62.4931 20.628 61.6771C20.628 60.9331 20.756 60.2971 21.012 59.7691C21.26 59.2331 21.608 58.7571 22.056 58.3411H15.324V56.2051ZM27.528 46.2434C27.56 47.2274 27.64 48.0674 27.768 48.7634C27.888 49.4514 28.048 50.0154 28.248 50.4554C28.448 50.8874 28.684 51.2034 28.956 51.4034C29.228 51.5954 29.532 51.6914 29.868 51.6914C30.188 51.6914 30.464 51.6394 30.696 51.5354C30.928 51.4314 31.12 51.2914 31.272 51.1154C31.416 50.9314 31.524 50.7194 31.596 50.4794C31.66 50.2314 31.692 49.9674 31.692 49.6874C31.692 49.3114 31.656 48.9674 31.584 48.6554C31.504 48.3434 31.392 48.0514 31.248 47.7794C31.104 47.4994 30.932 47.2354 30.732 46.9874C30.532 46.7314 30.304 46.4834 30.048 46.2434H27.528ZM22.56 53.1434C21.912 52.4714 21.428 51.7474 21.108 50.9714C20.788 50.1954 20.628 49.3354 20.628 48.3914C20.628 47.7114 20.74 47.1074 20.964 46.5794C21.188 46.0514 21.5 45.6074 21.9 45.2474C22.3 44.8874 22.784 44.6154 23.352 44.4314C23.92 44.2474 24.544 44.1554 25.224 44.1554H33V45.1034C33 45.3114 32.968 45.4714 32.904 45.5834C32.832 45.6954 32.696 45.7834 32.496 45.8474L31.344 46.0874C31.64 46.4074 31.904 46.7194 32.136 47.0234C32.36 47.3274 32.552 47.6474 32.712 47.9834C32.864 48.3194 32.98 48.6794 33.06 49.0634C33.148 49.4394 33.192 49.8594 33.192 50.3234C33.192 50.7954 33.128 51.2394 33 51.6554C32.864 52.0714 32.664 52.4354 32.4 52.7474C32.136 53.0514 31.804 53.2954 31.404 53.4794C30.996 53.6554 30.516 53.7434 29.964 53.7434C29.484 53.7434 29.024 53.6114 28.584 53.3474C28.136 53.0834 27.74 52.6554 27.396 52.0634C27.052 51.4714 26.772 50.6994 26.556 49.7474C26.332 48.7954 26.204 47.6274 26.172 46.2434H25.224C24.28 46.2434 23.568 46.4474 23.088 46.8554C22.6 47.2634 22.356 47.8594 22.356 48.6434C22.356 49.1714 22.424 49.6154 22.56 49.9754C22.688 50.3274 22.836 50.6354 23.004 50.8994C23.164 51.1554 23.312 51.3794 23.448 51.5714C23.576 51.7554 23.64 51.9394 23.64 52.1234C23.64 52.2674 23.604 52.3914 23.532 52.4954C23.452 52.5994 23.356 52.6874 23.244 52.7594L22.56 53.1434ZM20.844 30.695L36.588 37.475C36.748 37.547 36.876 37.639 36.972 37.751C37.068 37.855 37.116 38.019 37.116 38.243V39.827L32.292 37.607L20.844 42.623V40.775C20.844 40.591 20.892 40.447 20.988 40.343C21.076 40.231 21.176 40.155 21.288 40.115L28.944 36.863C29.28 36.735 29.632 36.627 30 36.539C29.624 36.427 29.268 36.307 28.932 36.179L21.288 33.023C21.16 32.975 21.056 32.895 20.976 32.783C20.888 32.663 20.844 32.531 20.844 32.387V30.695Z" fill="white"/>
</svg>
