<svg width="68" height="180" viewBox="0 0 68 180" fill="none" xmlns="http://www.w3.org/2000/svg">
<path d="M53.5 60H52.5V38.9854C52.6655 38.9944 52.8322 39 53 39C53.1678 39 53.3345 38.9944 53.5 38.9854V60ZM53 24C56.3137 24 59 26.6863 59 30C59 33.3137 56.3137 36 53 36C49.6863 36 47 33.3137 47 30C47 26.6863 49.6863 24 53 24ZM53.5 21.0137C53.3345 21.0046 53.1678 21 53 21C52.8322 21 52.6655 21.0046 52.5 21.0137V0H53.5V21.0137Z" fill="white"/>
<path d="M53.5 120H52.5V60H53.5V120Z" fill="white"/>
<path d="M53.5 180H52.5V120H53.5V180Z" fill="white"/>
<path d="M18.492 97.008C18.612 97.08 18.704 97.16 18.768 97.248C18.824 97.328 18.852 97.428 18.852 97.548C18.852 97.684 18.784 97.844 18.648 98.028C18.512 98.212 18.364 98.444 18.204 98.724C18.036 98.996 17.884 99.328 17.748 99.72C17.612 100.104 17.544 100.572 17.544 101.124C17.544 101.644 17.616 102.104 17.76 102.504C17.896 102.896 18.084 103.228 18.324 103.5C18.564 103.764 18.848 103.964 19.176 104.1C19.496 104.236 19.844 104.304 20.22 104.304C20.7 104.304 21.1 104.188 21.42 103.956C21.732 103.716 22 103.404 22.224 103.02C22.448 102.628 22.644 102.188 22.812 101.7C22.972 101.204 23.14 100.7 23.316 100.188C23.492 99.668 23.692 99.164 23.916 98.676C24.132 98.18 24.408 97.74 24.744 97.356C25.08 96.964 25.492 96.652 25.98 96.42C26.468 96.18 27.068 96.06 27.78 96.06C28.532 96.06 29.24 96.188 29.904 96.444C30.56 96.7 31.132 97.076 31.62 97.572C32.108 98.06 32.492 98.664 32.772 99.384C33.052 100.096 33.192 100.908 33.192 101.82C33.192 102.94 32.992 103.956 32.592 104.868C32.184 105.78 31.636 106.56 30.948 107.208L29.844 106.536C29.756 106.472 29.684 106.396 29.628 106.308C29.564 106.212 29.532 106.108 29.532 105.996C29.532 105.892 29.576 105.776 29.664 105.648C29.744 105.512 29.848 105.36 29.976 105.192C30.104 105.024 30.244 104.832 30.396 104.616C30.548 104.4 30.688 104.156 30.816 103.884C30.944 103.604 31.052 103.288 31.14 102.936C31.22 102.584 31.26 102.188 31.26 101.748C31.26 101.196 31.184 100.704 31.032 100.272C30.88 99.84 30.668 99.476 30.396 99.18C30.116 98.876 29.784 98.644 29.4 98.484C29.016 98.324 28.588 98.244 28.116 98.244C27.596 98.244 27.172 98.364 26.844 98.604C26.508 98.836 26.228 99.144 26.004 99.528C25.78 99.912 25.592 100.352 25.44 100.848C25.28 101.344 25.12 101.848 24.96 102.36C24.792 102.872 24.6 103.376 24.384 103.872C24.168 104.368 23.888 104.808 23.544 105.192C23.2 105.576 22.772 105.888 22.26 106.128C21.74 106.36 21.1 106.476 20.34 106.476C19.732 106.476 19.144 106.36 18.576 106.128C18.008 105.888 17.504 105.544 17.064 105.096C16.624 104.64 16.272 104.084 16.008 103.428C15.744 102.764 15.612 102.004 15.612 101.148C15.612 100.188 15.764 99.316 16.068 98.532C16.372 97.74 16.812 97.044 17.388 96.444L18.492 97.008ZM20.844 83.5151H33V84.7871C33 85.0911 32.852 85.2831 32.556 85.3631L31.248 85.5311C31.832 86.0591 32.304 86.6511 32.664 87.3071C33.016 87.9631 33.192 88.7151 33.192 89.5631C33.192 90.2271 33.084 90.8151 32.868 91.3271C32.644 91.8311 32.332 92.2551 31.932 92.5991C31.532 92.9431 31.048 93.2031 30.48 93.3791C29.912 93.5471 29.284 93.6311 28.596 93.6311H20.844V91.4951H28.596C29.516 91.4951 30.228 91.2871 30.732 90.8711C31.236 90.4471 31.488 89.8031 31.488 88.9391C31.488 88.3071 31.34 87.7191 31.044 87.1751C30.74 86.6231 30.324 86.1151 29.796 85.6511H20.844V83.5151ZM22.608 78.1123C22.312 77.8483 22.044 77.5683 21.804 77.2723C21.564 76.9763 21.36 76.6643 21.192 76.3363C21.016 76.0003 20.884 75.6483 20.796 75.2803C20.7 74.9043 20.652 74.5003 20.652 74.0683C20.652 73.4043 20.764 72.8203 20.988 72.3163C21.204 71.8043 21.516 71.3803 21.924 71.0443C22.324 70.7003 22.808 70.4403 23.376 70.2643C23.944 70.0883 24.572 70.0003 25.26 70.0003H33V72.1483H25.26C24.34 72.1483 23.628 72.3603 23.124 72.7843C22.612 73.2003 22.356 73.8363 22.356 74.6923C22.356 75.3243 22.508 75.9163 22.812 76.4683C23.116 77.0123 23.528 77.5163 24.048 77.9803H33V80.1283H20.844V78.8443C20.844 78.5403 20.992 78.3523 21.288 78.2803L22.608 78.1123ZM23.736 58.8255C23.2 59.2255 22.828 59.6575 22.62 60.1215C22.404 60.5855 22.296 61.1055 22.296 61.6815C22.296 62.8095 22.7 63.6775 23.508 64.2855C24.316 64.8935 25.468 65.1975 26.964 65.1975C27.756 65.1975 28.436 65.1295 29.004 64.9935C29.564 64.8575 30.028 64.6575 30.396 64.3935C30.756 64.1295 31.02 63.8055 31.188 63.4215C31.356 63.0375 31.44 62.6015 31.44 62.1135C31.44 61.4095 31.28 60.7975 30.96 60.2775C30.64 59.7495 30.188 59.2655 29.604 58.8255H23.736ZM15.324 56.6895H33V57.9615C33 58.2655 32.852 58.4575 32.556 58.5375L31.08 58.7295C31.704 59.2495 32.208 59.8415 32.592 60.5055C32.976 61.1695 33.168 61.9375 33.168 62.8095C33.168 63.5055 33.036 64.1375 32.772 64.7055C32.5 65.2735 32.104 65.7575 31.584 66.1575C31.064 66.5575 30.416 66.8655 29.64 67.0815C28.864 67.2975 27.972 67.4055 26.964 67.4055C26.068 67.4055 25.236 67.2855 24.468 67.0455C23.692 66.8055 23.02 66.4615 22.452 66.0135C21.884 65.5655 21.44 65.0175 21.12 64.3695C20.792 63.7135 20.628 62.9775 20.628 62.1615C20.628 61.4175 20.756 60.7815 21.012 60.2535C21.26 59.7175 21.608 59.2415 22.056 58.8255H15.324V56.6895ZM27.528 46.7278C27.56 47.7118 27.64 48.5518 27.768 49.2478C27.888 49.9358 28.048 50.4998 28.248 50.9398C28.448 51.3718 28.684 51.6878 28.956 51.8878C29.228 52.0798 29.532 52.1758 29.868 52.1758C30.188 52.1758 30.464 52.1238 30.696 52.0198C30.928 51.9158 31.12 51.7758 31.272 51.5998C31.416 51.4158 31.524 51.2038 31.596 50.9638C31.66 50.7158 31.692 50.4518 31.692 50.1718C31.692 49.7958 31.656 49.4518 31.584 49.1398C31.504 48.8278 31.392 48.5358 31.248 48.2638C31.104 47.9838 30.932 47.7198 30.732 47.4718C30.532 47.2158 30.304 46.9678 30.048 46.7278H27.528ZM22.56 53.6278C21.912 52.9558 21.428 52.2318 21.108 51.4558C20.788 50.6798 20.628 49.8198 20.628 48.8758C20.628 48.1958 20.74 47.5918 20.964 47.0638C21.188 46.5358 21.5 46.0918 21.9 45.7318C22.3 45.3718 22.784 45.0998 23.352 44.9158C23.92 44.7318 24.544 44.6398 25.224 44.6398H33V45.5878C33 45.7958 32.968 45.9558 32.904 46.0678C32.832 46.1798 32.696 46.2678 32.496 46.3318L31.344 46.5718C31.64 46.8918 31.904 47.2038 32.136 47.5078C32.36 47.8118 32.552 48.1318 32.712 48.4678C32.864 48.8038 32.98 49.1638 33.06 49.5478C33.148 49.9238 33.192 50.3438 33.192 50.8078C33.192 51.2798 33.128 51.7238 33 52.1398C32.864 52.5558 32.664 52.9198 32.4 53.2318C32.136 53.5358 31.804 53.7798 31.404 53.9638C30.996 54.1398 30.516 54.2278 29.964 54.2278C29.484 54.2278 29.024 54.0958 28.584 53.8318C28.136 53.5678 27.74 53.1398 27.396 52.5478C27.052 51.9558 26.772 51.1838 26.556 50.2318C26.332 49.2798 26.204 48.1118 26.172 46.7278H25.224C24.28 46.7278 23.568 46.9318 23.088 47.3398C22.6 47.7478 22.356 48.3438 22.356 49.1278C22.356 49.6558 22.424 50.0998 22.56 50.4598C22.688 50.8118 22.836 51.1198 23.004 51.3838C23.164 51.6398 23.312 51.8638 23.448 52.0558C23.576 52.2398 23.64 52.4238 23.64 52.6078C23.64 52.7518 23.604 52.8758 23.532 52.9798C23.452 53.0838 23.356 53.1718 23.244 53.2438L22.56 53.6278ZM20.844 31.1794L36.588 37.9594C36.748 38.0314 36.876 38.1234 36.972 38.2354C37.068 38.3394 37.116 38.5034 37.116 38.7274V40.3114L32.292 38.0914L20.844 43.1074V41.2594C20.844 41.0754 20.892 40.9314 20.988 40.8274C21.076 40.7154 21.176 40.6394 21.288 40.5994L28.944 37.3474C29.28 37.2194 29.632 37.1114 30 37.0234C29.624 36.9114 29.268 36.7914 28.932 36.6634L21.288 33.5074C21.16 33.4594 21.056 33.3794 20.976 33.2674C20.888 33.1474 20.844 33.0154 20.844 32.8714V31.1794Z" fill="white"/>
</svg>
