<svg width="68" height="180" viewBox="0 0 68 180" fill="none" xmlns="http://www.w3.org/2000/svg">
<path d="M53.5 60H52.5V38.9854C52.6655 38.9944 52.8322 39 53 39C53.1678 39 53.3345 38.9944 53.5 38.9854V60ZM53 24C56.3137 24 59 26.6863 59 30C59 33.3137 56.3137 36 53 36C49.6863 36 47 33.3137 47 30C47 26.6863 49.6863 24 53 24ZM53.5 21.0137C53.3345 21.0046 53.1678 21 53 21C52.8322 21 52.6655 21.0046 52.5 21.0137V0H53.5V21.0137Z" fill="white"/>
<path d="M53.5 120H52.5V60H53.5V120Z" fill="white"/>
<path d="M53.5 180H52.5V120H53.5V180Z" fill="white"/>
<path d="M18.492 112.008C18.612 112.08 18.704 112.16 18.768 112.248C18.824 112.328 18.852 112.428 18.852 112.548C18.852 112.684 18.784 112.844 18.648 113.028C18.512 113.212 18.364 113.444 18.204 113.724C18.036 113.996 17.884 114.328 17.748 114.72C17.612 115.104 17.544 115.572 17.544 116.124C17.544 116.644 17.616 117.104 17.76 117.504C17.896 117.896 18.084 118.228 18.324 118.5C18.564 118.764 18.848 118.964 19.176 119.1C19.496 119.236 19.844 119.304 20.22 119.304C20.7 119.304 21.1 119.188 21.42 118.956C21.732 118.716 22 118.404 22.224 118.02C22.448 117.628 22.644 117.188 22.812 116.7C22.972 116.204 23.14 115.7 23.316 115.188C23.492 114.668 23.692 114.164 23.916 113.676C24.132 113.18 24.408 112.74 24.744 112.356C25.08 111.964 25.492 111.652 25.98 111.42C26.468 111.18 27.068 111.06 27.78 111.06C28.532 111.06 29.24 111.188 29.904 111.444C30.56 111.7 31.132 112.076 31.62 112.572C32.108 113.06 32.492 113.664 32.772 114.384C33.052 115.096 33.192 115.908 33.192 116.82C33.192 117.94 32.992 118.956 32.592 119.868C32.184 120.78 31.636 121.56 30.948 122.208L29.844 121.536C29.756 121.472 29.684 121.396 29.628 121.308C29.564 121.212 29.532 121.108 29.532 120.996C29.532 120.892 29.576 120.776 29.664 120.648C29.744 120.512 29.848 120.36 29.976 120.192C30.104 120.024 30.244 119.832 30.396 119.616C30.548 119.4 30.688 119.156 30.816 118.884C30.944 118.604 31.052 118.288 31.14 117.936C31.22 117.584 31.26 117.188 31.26 116.748C31.26 116.196 31.184 115.704 31.032 115.272C30.88 114.84 30.668 114.476 30.396 114.18C30.116 113.876 29.784 113.644 29.4 113.484C29.016 113.324 28.588 113.244 28.116 113.244C27.596 113.244 27.172 113.364 26.844 113.604C26.508 113.836 26.228 114.144 26.004 114.528C25.78 114.912 25.592 115.352 25.44 115.848C25.28 116.344 25.12 116.848 24.96 117.36C24.792 117.872 24.6 118.376 24.384 118.872C24.168 119.368 23.888 119.808 23.544 120.192C23.2 120.576 22.772 120.888 22.26 121.128C21.74 121.36 21.1 121.476 20.34 121.476C19.732 121.476 19.144 121.36 18.576 121.128C18.008 120.888 17.504 120.544 17.064 120.096C16.624 119.64 16.272 119.084 16.008 118.428C15.744 117.764 15.612 117.004 15.612 116.148C15.612 115.188 15.764 114.316 16.068 113.532C16.372 112.74 16.812 112.044 17.388 111.444L18.492 112.008ZM27.528 101.853C27.56 102.837 27.64 103.677 27.768 104.373C27.888 105.061 28.048 105.625 28.248 106.065C28.448 106.497 28.684 106.813 28.956 107.013C29.228 107.205 29.532 107.301 29.868 107.301C30.188 107.301 30.464 107.249 30.696 107.145C30.928 107.041 31.12 106.901 31.272 106.725C31.416 106.541 31.524 106.329 31.596 106.089C31.66 105.841 31.692 105.577 31.692 105.297C31.692 104.921 31.656 104.577 31.584 104.265C31.504 103.953 31.392 103.661 31.248 103.389C31.104 103.109 30.932 102.845 30.732 102.597C30.532 102.341 30.304 102.093 30.048 101.853H27.528ZM22.56 108.753C21.912 108.081 21.428 107.357 21.108 106.581C20.788 105.805 20.628 104.945 20.628 104.001C20.628 103.321 20.74 102.717 20.964 102.189C21.188 101.661 21.5 101.217 21.9 100.857C22.3 100.497 22.784 100.225 23.352 100.041C23.92 99.8568 24.544 99.7648 25.224 99.7648H33V100.713C33 100.921 32.968 101.081 32.904 101.193C32.832 101.305 32.696 101.393 32.496 101.457L31.344 101.697C31.64 102.017 31.904 102.329 32.136 102.633C32.36 102.937 32.552 103.257 32.712 103.593C32.864 103.929 32.98 104.289 33.06 104.673C33.148 105.049 33.192 105.469 33.192 105.933C33.192 106.405 33.128 106.849 33 107.265C32.864 107.681 32.664 108.045 32.4 108.357C32.136 108.661 31.804 108.905 31.404 109.089C30.996 109.265 30.516 109.353 29.964 109.353C29.484 109.353 29.024 109.221 28.584 108.957C28.136 108.693 27.74 108.265 27.396 107.673C27.052 107.081 26.772 106.309 26.556 105.357C26.332 104.405 26.204 103.237 26.172 101.853H25.224C24.28 101.853 23.568 102.057 23.088 102.465C22.6 102.873 22.356 103.469 22.356 104.253C22.356 104.781 22.424 105.225 22.56 105.585C22.688 105.937 22.836 106.245 23.004 106.509C23.164 106.765 23.312 106.989 23.448 107.181C23.576 107.365 23.64 107.549 23.64 107.733C23.64 107.877 23.604 108.001 23.532 108.105C23.452 108.209 23.356 108.297 23.244 108.369L22.56 108.753ZM33.192 92.9432C33.192 93.9032 32.924 94.6432 32.388 95.1632C31.852 95.6752 31.08 95.9312 30.072 95.9312H22.632V97.3952C22.632 97.5232 22.596 97.6312 22.524 97.7192C22.444 97.8072 22.324 97.8512 22.164 97.8512H21.312L21.06 95.8592L17.304 95.3672C17.184 95.3432 17.088 95.2912 17.016 95.2112C16.936 95.1232 16.896 95.0112 16.896 94.8752V93.7952H21.084V90.2792H22.632V93.7952H29.928C30.44 93.7952 30.82 93.6712 31.068 93.4232C31.316 93.1752 31.44 92.8552 31.44 92.4632C31.44 92.2392 31.412 92.0472 31.356 91.8872C31.292 91.7192 31.224 91.5752 31.152 91.4552C31.08 91.3352 31.016 91.2352 30.96 91.1552C30.896 91.0672 30.864 90.9912 30.864 90.9272C30.864 90.8152 30.932 90.7152 31.068 90.6272L32.088 90.0032C32.432 90.3712 32.704 90.8152 32.904 91.3352C33.096 91.8552 33.192 92.3912 33.192 92.9432ZM20.844 78.0776H33V79.3496C33 79.6536 32.852 79.8456 32.556 79.9256L31.248 80.0936C31.832 80.6216 32.304 81.2136 32.664 81.8696C33.016 82.5256 33.192 83.2776 33.192 84.1256C33.192 84.7896 33.084 85.3776 32.868 85.8896C32.644 86.3936 32.332 86.8176 31.932 87.1616C31.532 87.5056 31.048 87.7656 30.48 87.9416C29.912 88.1096 29.284 88.1936 28.596 88.1936H20.844V86.0576H28.596C29.516 86.0576 30.228 85.8496 30.732 85.4336C31.236 85.0096 31.488 84.3656 31.488 83.5016C31.488 82.8696 31.34 82.2816 31.044 81.7376C30.74 81.1856 30.324 80.6776 29.796 80.2136H20.844L20.844 78.0776ZM23.28 72.6628C22.448 72.2788 21.8 71.8068 21.336 71.2468C20.864 70.6868 20.628 70.0028 20.628 69.1948C20.628 68.9388 20.656 68.6948 20.712 68.4628C20.768 68.2228 20.856 68.0108 20.976 67.8268L22.572 67.9828C22.772 68.0308 22.872 68.1508 22.872 68.3428C22.872 68.4548 22.848 68.6188 22.8 68.8348C22.752 69.0508 22.728 69.2948 22.728 69.5668C22.728 69.9508 22.784 70.2948 22.896 70.5988C23.008 70.8948 23.176 71.1628 23.4 71.4028C23.616 71.6348 23.888 71.8468 24.216 72.0388C24.536 72.2228 24.904 72.3908 25.32 72.5428H33V74.6908H20.844V73.4668C20.844 73.2348 20.888 73.0748 20.976 72.9868C21.064 72.8988 21.216 72.8388 21.432 72.8068L23.28 72.6628ZM23.736 58.4974C23.2 58.8974 22.828 59.3294 22.62 59.7934C22.404 60.2574 22.296 60.7774 22.296 61.3534C22.296 62.4814 22.7 63.3494 23.508 63.9574C24.316 64.5654 25.468 64.8694 26.964 64.8694C27.756 64.8694 28.436 64.8014 29.004 64.6654C29.564 64.5294 30.028 64.3294 30.396 64.0654C30.756 63.8014 31.02 63.4774 31.188 63.0934C31.356 62.7094 31.44 62.2734 31.44 61.7854C31.44 61.0814 31.28 60.4694 30.96 59.9494C30.64 59.4214 30.188 58.9374 29.604 58.4974H23.736ZM15.324 56.3614H33V57.6334C33 57.9374 32.852 58.1294 32.556 58.2094L31.08 58.4014C31.704 58.9214 32.208 59.5134 32.592 60.1774C32.976 60.8414 33.168 61.6094 33.168 62.4814C33.168 63.1774 33.036 63.8094 32.772 64.3774C32.5 64.9454 32.104 65.4294 31.584 65.8294C31.064 66.2294 30.416 66.5374 29.64 66.7534C28.864 66.9694 27.972 67.0774 26.964 67.0774C26.068 67.0774 25.236 66.9574 24.468 66.7174C23.692 66.4774 23.02 66.1334 22.452 65.6854C21.884 65.2374 21.44 64.6894 21.12 64.0414C20.792 63.3854 20.628 62.6494 20.628 61.8334C20.628 61.0894 20.756 60.4534 21.012 59.9254C21.26 59.3894 21.608 58.9134 22.056 58.4974H15.324V56.3614ZM27.528 46.3997C27.56 47.3837 27.64 48.2237 27.768 48.9197C27.888 49.6077 28.048 50.1717 28.248 50.6117C28.448 51.0437 28.684 51.3597 28.956 51.5597C29.228 51.7517 29.532 51.8477 29.868 51.8477C30.188 51.8477 30.464 51.7957 30.696 51.6917C30.928 51.5877 31.12 51.4477 31.272 51.2717C31.416 51.0877 31.524 50.8757 31.596 50.6357C31.66 50.3877 31.692 50.1237 31.692 49.8437C31.692 49.4677 31.656 49.1237 31.584 48.8117C31.504 48.4997 31.392 48.2077 31.248 47.9357C31.104 47.6557 30.932 47.3917 30.732 47.1437C30.532 46.8877 30.304 46.6397 30.048 46.3997H27.528ZM22.56 53.2997C21.912 52.6277 21.428 51.9037 21.108 51.1277C20.788 50.3517 20.628 49.4917 20.628 48.5477C20.628 47.8677 20.74 47.2637 20.964 46.7357C21.188 46.2077 21.5 45.7637 21.9 45.4037C22.3 45.0437 22.784 44.7717 23.352 44.5877C23.92 44.4037 24.544 44.3117 25.224 44.3117H33V45.2597C33 45.4677 32.968 45.6277 32.904 45.7397C32.832 45.8517 32.696 45.9397 32.496 46.0037L31.344 46.2437C31.64 46.5637 31.904 46.8757 32.136 47.1797C32.36 47.4837 32.552 47.8037 32.712 48.1397C32.864 48.4757 32.98 48.8357 33.06 49.2197C33.148 49.5957 33.192 50.0157 33.192 50.4797C33.192 50.9517 33.128 51.3957 33 51.8117C32.864 52.2277 32.664 52.5917 32.4 52.9037C32.136 53.2077 31.804 53.4517 31.404 53.6357C30.996 53.8117 30.516 53.8997 29.964 53.8997C29.484 53.8997 29.024 53.7677 28.584 53.5037C28.136 53.2397 27.74 52.8117 27.396 52.2197C27.052 51.6277 26.772 50.8557 26.556 49.9037C26.332 48.9517 26.204 47.7837 26.172 46.3997H25.224C24.28 46.3997 23.568 46.6037 23.088 47.0117C22.6 47.4197 22.356 48.0157 22.356 48.7997C22.356 49.3277 22.424 49.7717 22.56 50.1317C22.688 50.4837 22.836 50.7917 23.004 51.0557C23.164 51.3117 23.312 51.5357 23.448 51.7277C23.576 51.9117 23.64 52.0957 23.64 52.2797C23.64 52.4237 23.604 52.5477 23.532 52.6517C23.452 52.7557 23.356 52.8437 23.244 52.9157L22.56 53.2997ZM20.844 30.8512L36.588 37.6312C36.748 37.7032 36.876 37.7952 36.972 37.9072C37.068 38.0112 37.116 38.1752 37.116 38.3992V39.9832L32.292 37.7632L20.844 42.7792V40.9312C20.844 40.7472 20.892 40.6032 20.988 40.4992C21.076 40.3872 21.176 40.3112 21.288 40.2712L28.944 37.0192C29.28 36.8912 29.632 36.7832 30 36.6953C29.624 36.5832 29.268 36.4632 28.932 36.3352L21.288 33.1792C21.16 33.1312 21.056 33.0512 20.976 32.9392C20.888 32.8192 20.844 32.6872 20.844 32.5432V30.8512Z" fill="white"/>
</svg>
