<svg width="68" height="180" viewBox="0 0 68 180" fill="none" xmlns="http://www.w3.org/2000/svg">
<path d="M53.5 60H52.5V38.9854C52.6655 38.9944 52.8322 39 53 39C53.1678 39 53.3345 38.9944 53.5 38.9854V60ZM53 24C56.3137 24 59 26.6863 59 30C59 33.3137 56.3137 36 53 36C49.6863 36 47 33.3137 47 30C47 26.6863 49.6863 24 53 24ZM53.5 21.0137C53.3345 21.0046 53.1678 21 53 21C52.8322 21 52.6655 21.0046 52.5 21.0137V0H53.5V21.0137Z" fill="white"/>
<path d="M53.5 120H52.5V60H53.5V120Z" fill="white"/>
<path d="M53.5 180H52.5V120H53.5V180Z" fill="white"/>
<path d="M15.804 96.912H33V98.952H20.364C20.196 98.952 20.016 98.948 19.824 98.94C19.632 98.924 19.436 98.908 19.236 98.892L29.988 104.796C30.348 104.98 30.528 105.26 30.528 105.636V105.972C30.528 106.348 30.348 106.628 29.988 106.812L19.188 112.836C19.612 112.788 20.004 112.764 20.364 112.764H33V114.804H15.804V113.088C15.804 112.88 15.824 112.72 15.864 112.608C15.904 112.496 16.016 112.388 16.2 112.284L26.784 106.344C26.976 106.248 27.176 106.156 27.384 106.068C27.592 105.972 27.804 105.884 28.02 105.804C27.804 105.724 27.592 105.64 27.384 105.552C27.168 105.464 26.964 105.368 26.772 105.264L16.2 99.432C16.016 99.336 15.904 99.232 15.864 99.12C15.824 99 15.804 98.836 15.804 98.628V96.912ZM20.652 88.2699C20.652 87.3819 20.8 86.5819 21.096 85.8699C21.392 85.1579 21.812 84.5499 22.356 84.0459C22.9 83.5419 23.56 83.1579 24.336 82.8939C25.104 82.6219 25.964 82.4859 26.916 82.4859C27.876 82.4859 28.74 82.6219 29.508 82.8939C30.276 83.1579 30.932 83.5419 31.476 84.0459C32.02 84.5499 32.44 85.1579 32.736 85.8699C33.024 86.5819 33.168 87.3819 33.168 88.2699C33.168 89.1659 33.024 89.9739 32.736 90.6939C32.44 91.4059 32.02 92.0139 31.476 92.5179C30.932 93.0219 30.276 93.4099 29.508 93.6819C28.74 93.9459 27.876 94.0779 26.916 94.0779C25.964 94.0779 25.104 93.9459 24.336 93.6819C23.56 93.4099 22.9 93.0219 22.356 92.5179C21.812 92.0139 21.392 91.4059 21.096 90.6939C20.8 89.9739 20.652 89.1659 20.652 88.2699ZM31.5 88.2699C31.5 87.0699 31.1 86.1739 30.3 85.5819C29.492 84.9899 28.368 84.6939 26.928 84.6939C25.48 84.6939 24.352 84.9899 23.544 85.5819C22.736 86.1739 22.332 87.0699 22.332 88.2699C22.332 88.8779 22.436 89.4099 22.644 89.8659C22.852 90.3139 23.152 90.6899 23.544 90.9939C23.936 91.2899 24.42 91.5139 24.996 91.6659C25.564 91.8099 26.208 91.8819 26.928 91.8819C28.368 91.8819 29.492 91.5859 30.3 90.9939C31.1 90.3939 31.5 89.4859 31.5 88.2699ZM22.608 77.7607C22.312 77.4967 22.044 77.2167 21.804 76.9207C21.564 76.6247 21.36 76.3127 21.192 75.9847C21.016 75.6487 20.884 75.2967 20.796 74.9287C20.7 74.5527 20.652 74.1487 20.652 73.7167C20.652 73.0527 20.764 72.4687 20.988 71.9647C21.204 71.4527 21.516 71.0287 21.924 70.6927C22.324 70.3487 22.808 70.0887 23.376 69.9127C23.944 69.7367 24.572 69.6487 25.26 69.6487H33V71.7967H25.26C24.34 71.7967 23.628 72.0087 23.124 72.4327C22.612 72.8487 22.356 73.4847 22.356 74.3407C22.356 74.9727 22.508 75.5647 22.812 76.1167C23.116 76.6607 23.528 77.1647 24.048 77.6287H33V79.7767H20.844V78.4927C20.844 78.1887 20.992 78.0007 21.288 77.9287L22.608 77.7607ZM23.736 58.4739C23.2 58.8739 22.828 59.3059 22.62 59.7699C22.404 60.2339 22.296 60.7539 22.296 61.3299C22.296 62.4579 22.7 63.3259 23.508 63.9339C24.316 64.5419 25.468 64.8459 26.964 64.8459C27.756 64.8459 28.436 64.7779 29.004 64.6419C29.564 64.5059 30.028 64.3059 30.396 64.0419C30.756 63.7779 31.02 63.4539 31.188 63.0699C31.356 62.6859 31.44 62.2499 31.44 61.7619C31.44 61.0579 31.28 60.4459 30.96 59.9259C30.64 59.3979 30.188 58.9139 29.604 58.4739H23.736ZM15.324 56.3379H33V57.6099C33 57.9139 32.852 58.1059 32.556 58.1859L31.08 58.3779C31.704 58.8979 32.208 59.4899 32.592 60.1539C32.976 60.8179 33.168 61.5859 33.168 62.4579C33.168 63.1539 33.036 63.7859 32.772 64.3539C32.5 64.9219 32.104 65.4059 31.584 65.8059C31.064 66.2059 30.416 66.5139 29.64 66.7299C28.864 66.9459 27.972 67.0539 26.964 67.0539C26.068 67.0539 25.236 66.9339 24.468 66.6939C23.692 66.4539 23.02 66.1099 22.452 65.6619C21.884 65.2139 21.44 64.6659 21.12 64.0179C20.792 63.3619 20.628 62.6259 20.628 61.8099C20.628 61.0659 20.756 60.4299 21.012 59.9019C21.26 59.3659 21.608 58.8899 22.056 58.4739H15.324V56.3379ZM27.528 46.3762C27.56 47.3602 27.64 48.2002 27.768 48.8962C27.888 49.5842 28.048 50.1482 28.248 50.5882C28.448 51.0202 28.684 51.3362 28.956 51.5362C29.228 51.7282 29.532 51.8242 29.868 51.8242C30.188 51.8242 30.464 51.7722 30.696 51.6682C30.928 51.5642 31.12 51.4242 31.272 51.2482C31.416 51.0642 31.524 50.8522 31.596 50.6122C31.66 50.3642 31.692 50.1002 31.692 49.8202C31.692 49.4442 31.656 49.1002 31.584 48.7882C31.504 48.4762 31.392 48.1842 31.248 47.9122C31.104 47.6322 30.932 47.3682 30.732 47.1202C30.532 46.8642 30.304 46.6162 30.048 46.3762H27.528ZM22.56 53.2762C21.912 52.6042 21.428 51.8802 21.108 51.1042C20.788 50.3282 20.628 49.4682 20.628 48.5242C20.628 47.8442 20.74 47.2402 20.964 46.7122C21.188 46.1842 21.5 45.7402 21.9 45.3802C22.3 45.0202 22.784 44.7482 23.352 44.5642C23.92 44.3802 24.544 44.2882 25.224 44.2882H33V45.2362C33 45.4442 32.968 45.6042 32.904 45.7162C32.832 45.8282 32.696 45.9162 32.496 45.9802L31.344 46.2202C31.64 46.5402 31.904 46.8522 32.136 47.1562C32.36 47.4602 32.552 47.7802 32.712 48.1162C32.864 48.4522 32.98 48.8122 33.06 49.1962C33.148 49.5722 33.192 49.9922 33.192 50.4562C33.192 50.9282 33.128 51.3722 33 51.7882C32.864 52.2042 32.664 52.5682 32.4 52.8802C32.136 53.1842 31.804 53.4282 31.404 53.6122C30.996 53.7882 30.516 53.8762 29.964 53.8762C29.484 53.8762 29.024 53.7442 28.584 53.4802C28.136 53.2162 27.74 52.7882 27.396 52.1962C27.052 51.6042 26.772 50.8322 26.556 49.8802C26.332 48.9282 26.204 47.7602 26.172 46.3762H25.224C24.28 46.3762 23.568 46.5802 23.088 46.9882C22.6 47.3962 22.356 47.9922 22.356 48.7762C22.356 49.3042 22.424 49.7482 22.56 50.1082C22.688 50.4602 22.836 50.7682 23.004 51.0322C23.164 51.2882 23.312 51.5122 23.448 51.7042C23.576 51.8882 23.64 52.0722 23.64 52.2562C23.64 52.4002 23.604 52.5242 23.532 52.6282C23.452 52.7322 23.356 52.8202 23.244 52.8923L22.56 53.2762ZM20.844 30.8278L36.588 37.6078C36.748 37.6798 36.876 37.7718 36.972 37.8838C37.068 37.9878 37.116 38.1518 37.116 38.3758V39.9598L32.292 37.7398L20.844 42.7558V40.9078C20.844 40.7238 20.892 40.5798 20.988 40.4758C21.076 40.3638 21.176 40.2878 21.288 40.2478L28.944 36.9958C29.28 36.8678 29.632 36.7598 30 36.6718C29.624 36.5598 29.268 36.4398 28.932 36.3118L21.288 33.1558C21.16 33.1078 21.056 33.0278 20.976 32.9158C20.888 32.7958 20.844 32.6638 20.844 32.5198V30.8278Z" fill="white"/>
</svg>
