<svg width="100" height="100" viewBox="0 0 100 100" fill="none" xmlns="http://www.w3.org/2000/svg">
<path d="M66.6356 63.9027C61.5997 63.5727 57.6404 59.4068 57.6404 54.3143C57.6404 54.1443 57.6437 53.9743 57.6537 53.8044V53.8277C57.6437 53.6677 57.6371 53.4811 57.6371 53.2911C57.6371 48.2086 61.6031 44.056 66.6089 43.7527H66.6356C71.6647 44.026 75.6374 48.1686 75.6374 53.2411C75.6374 53.4478 75.6307 53.6511 75.6174 53.8544V53.8277C75.6274 53.9943 75.6341 54.191 75.6341 54.3876C75.6341 59.4634 71.6647 63.6127 66.6589 63.8994H66.6322L66.6356 63.9027ZM33.4211 63.9027C28.3853 63.5727 24.4259 59.4068 24.4259 54.3143C24.4259 54.1443 24.4293 53.9743 24.4393 53.8044V53.8277C24.4293 53.6677 24.4226 53.4811 24.4226 53.2911C24.4226 48.2086 28.3886 44.056 33.3944 43.7527H33.4211C38.4503 44.026 42.4229 48.1686 42.4229 53.2411C42.4229 53.4478 42.4163 53.6511 42.4029 53.8544V53.8277C42.4129 53.9877 42.4196 54.1743 42.4196 54.3643C42.4196 59.4468 38.4536 63.5994 33.4478 63.9027H33.4211ZM84.6359 18.2503C78.7602 15.4774 71.9347 13.2845 64.7892 12.0147L64.2926 11.9413C64.276 11.938 64.256 11.9347 64.236 11.9347C64.1193 11.9347 64.0193 11.998 63.966 12.0913C63.1861 13.4611 62.3396 15.1708 61.5764 16.9238L61.4331 17.2938C58.0003 16.7439 54.041 16.4306 50.0083 16.4306C45.9757 16.4306 42.0163 16.7439 38.1536 17.3471L38.5836 17.2905C37.6837 15.1908 36.8239 13.4844 35.874 11.8314L36.0107 12.088C35.954 11.9913 35.8507 11.9313 35.734 11.9313C35.7174 11.9313 35.6974 11.9313 35.6807 11.9347C28.0387 13.2778 21.2131 15.4674 14.8342 18.4569L15.3374 18.2436C15.2808 18.267 15.2341 18.3069 15.2041 18.3569C5.69238 31.8247 0 48.5819 0 66.6689C0 69.6917 0.159973 72.6746 0.469922 75.6141L0.439927 75.2475C0.449925 75.3441 0.499917 75.4241 0.569905 75.4808C7.70205 80.8165 15.994 85.1158 24.9425 87.9387L25.5291 88.0987C25.5557 88.1087 25.5891 88.112 25.6224 88.112C25.729 88.112 25.8224 88.062 25.879 87.9853C27.6621 85.5857 29.3584 82.8662 30.8282 80.0133L30.9848 79.6801C31.0048 79.6401 31.0182 79.5901 31.0182 79.5367C31.0182 79.4001 30.9315 79.2868 30.8115 79.2401H30.8082C27.7687 78.067 25.1991 76.8172 22.7529 75.3841L23.0095 75.5241C22.9128 75.4674 22.8495 75.3641 22.8495 75.2475C22.8495 75.1441 22.8995 75.0508 22.9762 74.9942C23.4994 74.6009 24.026 74.1943 24.5259 73.781C24.5792 73.7377 24.6492 73.7111 24.7225 73.7111C24.7692 73.7111 24.8125 73.721 24.8492 73.7377H24.8459C32.2046 77.2738 40.8432 79.3401 49.9617 79.3401C59.0802 79.3401 67.722 77.2738 75.4341 73.5844L75.0775 73.7377C75.1175 73.7177 75.1608 73.7077 75.2108 73.7077C75.2841 73.7077 75.3541 73.7344 75.4074 73.7777C75.9074 74.191 76.4306 74.6042 76.9605 74.9942C77.0372 75.0542 77.0872 75.1475 77.0872 75.2508C77.0872 75.3674 77.0238 75.4674 76.9338 75.5241C74.7309 76.8405 72.1613 78.087 69.4851 79.1168L69.1351 79.2368C69.0152 79.2835 68.9285 79.4001 68.9285 79.5334C68.9285 79.5867 68.9418 79.6367 68.9652 79.6801C70.6349 82.8795 72.3279 85.5924 74.201 88.1686L74.0677 87.9787C74.1243 88.0587 74.221 88.112 74.3243 88.112C74.3576 88.112 74.3909 88.1053 74.4209 88.0987C83.9693 85.1258 92.2746 80.8265 99.6334 75.3274L99.4168 75.4841C99.4901 75.4308 99.5367 75.3474 99.5467 75.2541C99.8367 72.6412 100 69.6084 100 66.5389C100 48.4919 94.2943 31.778 84.5926 18.1003L84.7659 18.3603C84.7392 18.3069 84.6925 18.2636 84.6392 18.2403L84.6359 18.2503Z" fill="white"/>
</svg>
