<svg width="803" height="275" viewBox="0 0 803 275" fill="none" xmlns="http://www.w3.org/2000/svg">
<path d="M400.591 222.121C394.862 225.616 389.171 229.187 383.479 232.794C377.825 236.475 319.349 271.542 313.62 275.001C313.62 272.212 313.881 260.461 313.881 257.672C319.572 253.879 377.229 219.183 382.847 215.65C388.426 212.117 394.899 208.584 400.591 205.089V222.121ZM409.146 205.089C414.838 208.584 421.311 212.117 426.891 215.65C432.509 219.184 490.165 253.879 495.856 257.672C495.856 260.461 496.116 272.212 496.116 275.001C490.423 271.541 431.913 236.476 426.258 232.794C420.566 229.187 414.875 225.616 409.146 222.121V205.089ZM724.998 97.5437C725.965 97.2834 726.97 97.4321 728.049 98.0642C729.09 98.6963 730.392 99.3656 731.917 100.072C743.709 107.1 755.613 114.018 767.628 120.786C779.606 127.628 791.286 134.396 802.669 141.127C789.873 148.713 777.114 156.188 764.317 163.551C751.558 170.914 738.65 178.388 725.594 185.974C722.097 183.743 718.451 181.512 714.769 179.355C711.049 177.161 707.254 174.967 703.497 172.736C712.35 167.381 721.278 162.138 730.317 156.931C739.357 151.725 748.359 146.482 757.175 141.127C752.116 137.892 746.945 134.843 741.7 131.979C736.418 129.116 731.285 126.252 726.226 123.463C716.963 128.52 707.813 133.727 698.773 139.045C689.697 144.4 680.546 149.717 671.283 155.035V217.547C680.546 222.864 689.697 228.145 698.773 233.314C707.813 238.52 716.778 243.801 725.594 249.119C734.856 243.801 743.895 238.52 752.785 233.314C761.638 228.108 770.678 222.864 779.94 217.547L802.706 230.822C789.91 238.408 777.151 245.846 764.354 253.135C751.596 260.423 738.687 267.712 725.631 275.001C712.835 267.712 700.075 260.349 687.316 252.912C674.52 245.474 661.612 238.111 648.556 230.822V141.76C659.343 135.438 670.465 129.041 681.811 122.496C693.193 115.951 704.39 109.555 715.513 103.233C717.038 102.266 718.637 101.225 720.236 100.183C721.836 99.1422 723.436 98.2503 724.998 97.5437ZM635.089 95.7957C635.312 95.7957 635.424 95.9075 635.424 96.1306C635.424 101.485 635.35 107.138 635.238 113.125C635.127 119.112 635.052 125.025 635.052 130.9C635.201 149.122 635.312 167.418 635.35 185.826C635.387 204.234 635.424 244.582 635.424 263.25C633.899 262.543 632.299 261.724 630.588 260.758C628.914 259.791 627.278 258.899 625.753 258.081C625.604 257.932 625.083 257.634 624.19 257.225C623.298 256.779 622.777 256.407 622.628 256.035V151.654C617.595 154.393 612.673 157.206 607.897 160.055C603.062 162.919 598.263 165.745 593.427 168.497V154.031C598.263 151.279 603.062 148.49 607.897 145.701C612.71 142.926 617.595 140.076 622.628 137.19V117.512C617.978 120.116 613.18 122.794 608.344 125.62C603.471 128.409 598.709 131.123 594.06 133.726C593.911 133.875 593.799 134.024 593.725 134.136C593.65 134.247 593.538 134.247 593.39 134.061V119.93C600.383 115.951 607.302 111.935 614.258 107.845C621.177 103.791 628.133 99.7747 635.089 95.7957ZM570.588 167.641C572.597 168.869 574.606 170.096 576.54 171.323C578.474 172.513 580.445 173.74 582.491 175.005C582.417 178.946 582.343 182.368 582.306 185.194C582.268 188.02 582.231 190.698 582.231 193.189C582.231 195.685 582.268 244.543 582.306 247.073C582.343 249.602 582.417 252.54 582.491 255.887C580.483 257.039 578.474 258.267 576.503 259.494C574.532 260.721 572.374 261.948 570.03 263.1C570.03 261.873 570.067 260.312 570.104 258.49C570.142 256.668 570.179 254.771 570.216 252.762C570.253 250.792 570.29 248.858 570.29 246.999C570.29 245.139 570.216 197.168 570.067 195.829C570.067 190.4 570.141 185.231 570.29 180.322C570.439 175.413 570.365 171.285 570.067 167.864C570.29 167.864 570.439 167.827 570.514 167.753C570.551 167.753 570.588 167.716 570.588 167.641ZM551.021 31.6472C558.275 35.6262 565.38 39.6797 572.336 43.7703C579.255 47.8608 586.285 51.9892 593.39 56.117C593.241 63.9262 593.204 71.6985 593.278 79.4334C593.353 87.1682 593.39 95.0145 593.39 102.972V104.348C593.241 104.72 592.869 105.092 592.312 105.389C591.754 105.687 591.196 105.911 590.638 106.059C584.202 109.89 577.692 113.682 571.108 117.438C566.719 119.942 562.329 122.465 557.939 125.002V255.738L545.553 262.952V125.546C540.4 122.624 535.266 119.67 530.152 116.695C523.159 112.605 516.091 108.476 508.986 104.348C509.135 96.0186 509.173 88.1723 509.099 80.8094C509.024 73.4835 508.986 66.1575 508.986 58.8689V56.117C509.135 55.9682 509.544 55.6705 510.177 55.2615C510.809 54.8525 511.33 54.5548 511.739 54.406C514.864 52.6582 517.915 50.9105 520.854 49.2371C523.792 47.5637 526.842 45.8159 529.967 44.0681C533.649 41.837 537.22 39.7549 540.643 37.7469C544.139 35.7387 547.599 33.7297 551.021 31.6472ZM130.791 68.8719V131.124C132.056 130.863 133.283 130.305 134.474 129.561C135.664 128.78 136.743 128.074 137.71 127.368C145.67 122.905 153.631 118.406 161.629 113.869C169.589 109.332 177.364 104.832 184.915 100.333C197.897 107.584 210.805 114.947 223.602 122.347C236.398 129.748 249.305 137.074 262.287 144.362V233.016C261.581 233.016 261.06 232.793 260.726 232.385C260.391 231.975 260.055 231.752 259.795 231.752C256.298 229.818 252.876 227.885 249.528 225.988C246.181 224.129 242.907 222.046 239.671 219.815V165.708C239.671 164.443 239.745 163.03 239.894 161.506C240.042 159.981 239.968 158.828 239.671 158.159C239.373 157.192 238.406 156.373 236.732 155.741C235.058 155.109 233.719 154.44 232.752 153.733C224.791 149.271 216.942 144.734 209.168 140.123C201.431 135.512 193.544 130.826 185.584 126.103C176.359 131.421 167.245 136.665 158.206 141.834C149.204 147.003 140.09 152.246 130.865 157.526V219.778C127.369 222.009 123.649 224.203 119.743 226.397C115.837 228.554 111.969 230.748 108.212 233.016V55.6707L130.791 68.8719ZM320.093 136.143C320.613 135.995 321.172 136.069 321.767 136.441C322.325 136.776 323.069 137.147 323.888 137.519C330.323 141.35 336.795 145.106 343.342 148.825C349.926 152.506 356.287 156.225 362.499 159.869C355.543 163.997 348.55 168.087 341.594 172.103C334.638 176.12 327.57 180.211 320.465 184.339C318.568 183.112 316.559 181.921 314.551 180.731C312.505 179.541 310.459 178.351 308.413 177.124C313.249 174.223 318.122 171.36 323.069 168.497C328.017 165.671 332.89 162.807 337.726 159.869C334.973 158.121 332.145 156.448 329.281 154.887C326.417 153.325 323.59 151.763 320.837 150.238C315.778 152.99 310.793 155.816 305.846 158.717C300.899 161.617 295.914 164.554 290.855 167.455V201.556C295.914 204.457 300.899 207.32 305.846 210.146C310.793 212.972 315.666 215.836 320.502 218.773C325.561 215.873 330.509 213.01 335.308 210.146C340.143 207.32 345.053 204.457 350.112 201.556L362.499 208.77C355.543 212.898 348.55 216.951 341.594 220.93C334.638 224.909 327.57 228.889 320.465 232.868C313.509 228.889 306.516 224.873 299.56 220.819C292.603 216.766 285.536 212.749 278.431 208.77V160.241C284.308 156.82 290.372 153.287 296.584 149.755C302.796 146.185 308.897 142.689 314.96 139.267C315.815 138.747 316.671 138.188 317.526 137.594C318.419 137.036 319.274 136.552 320.093 136.143ZM487.635 49.9441C489.643 51.1712 491.578 52.3616 493.475 53.5515C495.372 54.7414 497.343 55.9309 499.352 57.158C499.277 61.0626 499.203 64.41 499.166 67.199C499.129 69.988 499.092 72.6285 499.092 75.0828C499.092 77.5404 499.129 125.688 499.166 128.185C499.202 130.572 499.271 133.334 499.342 136.438C505.26 139.872 511.148 143.279 516.984 146.631C523.977 150.647 531.045 154.737 538.149 158.865C537.777 174.781 537.777 190.846 538.149 207.059C537.778 207.059 537.48 206.985 537.294 206.837C537.108 206.688 536.81 206.539 536.438 206.353C534.69 205.275 532.868 204.233 531.045 203.266C529.222 202.262 527.325 201.222 525.428 200.18V170.207C525.428 169.649 525.466 168.98 525.54 168.125C525.614 167.269 525.577 166.6 525.428 166.042C525.427 165.893 525.279 165.707 524.981 165.484C524.684 165.261 524.349 165.038 523.94 164.852C523.569 164.666 523.159 164.481 522.787 164.332C522.415 164.183 522.155 164.071 521.969 163.997C517.617 161.394 513.227 158.865 508.875 156.411C504.523 153.957 500.133 151.428 495.781 148.825C490.946 151.577 486.072 154.403 481.125 157.303C476.178 160.204 471.193 163.141 466.134 166.042V200.143C470.635 202.895 475.211 205.61 479.86 208.25C484.473 210.89 489.234 213.605 494.032 216.356C494.181 216.505 494.479 216.729 494.888 216.989C495.297 217.249 495.595 217.398 495.744 217.398C495.893 217.398 496.191 217.249 496.6 216.989C497.009 216.729 497.417 216.505 497.789 216.356C500.393 214.832 502.886 213.345 505.304 211.931C507.722 210.518 510.14 209.105 512.595 207.729C514.678 208.808 516.761 209.96 518.918 211.224C521.075 212.489 523.084 213.716 525.019 214.943C520.183 217.695 515.31 220.521 510.362 223.385C505.415 226.248 500.542 229.074 495.706 231.826C488.601 227.698 481.534 223.608 474.578 219.592C467.622 215.575 460.628 211.485 453.672 207.357V158.828C460.628 154.849 467.622 150.795 474.578 146.705C478.772 144.278 482.952 141.851 487.15 139.416C487.187 137.642 487.226 135.759 487.263 133.839C487.3 131.868 487.337 130.008 487.337 128.148C487.337 126.32 487.262 79.061 487.113 77.7596C487.113 72.4049 487.188 67.3105 487.337 62.4763C487.486 57.642 487.411 53.5507 487.113 50.2039C487.336 50.2039 487.485 50.1669 487.56 50.0926C487.597 50.0554 487.635 50.0184 487.635 49.9441ZM525.465 200.514C527.548 201.593 529.632 202.746 531.715 203.936C533.798 205.163 535.956 206.316 538.188 207.394C537.816 212.377 537.816 217.212 538.188 221.86C533.835 219.629 529.594 217.286 525.428 214.795C521.299 212.303 517.17 209.849 513.041 207.394C514.603 206.474 516.144 205.595 517.696 204.759L520.81 203.114C522.361 202.279 523.903 201.407 525.465 200.514ZM366.405 162.1C372.134 165.596 377.825 169.129 383.479 172.81C389.17 176.417 394.861 179.988 400.59 183.483V200.514C394.899 197.019 388.426 193.487 382.847 189.954C377.23 186.421 372.356 183.223 366.665 179.429C366.665 176.64 366.405 164.889 366.405 162.1ZM443.332 162.1C443.332 164.889 443.071 176.64 443.071 179.429C437.38 183.222 432.507 186.421 426.891 189.954C421.311 193.487 414.838 197.019 409.146 200.514V183.483C414.875 179.988 420.566 176.417 426.258 172.81C431.912 169.129 437.641 165.596 443.332 162.1ZM279.027 49.9441C281.036 51.1712 282.97 52.3616 284.867 53.5515C286.764 54.7414 288.736 55.9309 290.744 57.158C290.67 61.0626 290.596 64.41 290.559 67.199C290.521 69.988 290.484 72.6285 290.484 75.0828C290.484 77.5404 290.521 125.688 290.559 128.185C290.596 130.677 290.67 133.578 290.744 136.85C288.735 138.003 286.764 139.194 284.83 140.421C282.896 141.648 280.738 142.837 278.469 143.99C278.469 142.763 278.506 141.239 278.543 139.454C278.58 137.669 278.618 135.772 278.655 133.839C278.692 131.868 278.729 130.008 278.729 128.148C278.729 126.32 278.655 79.061 278.506 77.7596C278.506 72.4049 278.581 67.3105 278.729 62.4763C278.878 57.642 278.803 53.5507 278.506 50.2039C278.729 50.2039 278.878 50.1669 278.952 50.0926C278.989 50.0554 279.027 50.0184 279.027 49.9441ZM343.678 40.8699C348.885 43.7705 354.093 46.7835 359.338 49.8328C364.583 52.8821 369.791 56.006 374.999 59.1297C376.747 60.208 378.533 61.2119 380.355 62.1043C382.141 63.0339 383.815 64.1126 385.34 65.3025C383.257 66.3809 381.211 67.4964 379.202 68.6492C377.156 69.802 375.184 70.9923 373.287 72.2195C368.228 69.4677 363.244 66.6405 358.297 63.7771C353.35 60.9137 348.476 58.0876 343.641 55.3357C338.582 58.0876 333.634 60.9137 328.761 63.7771C323.888 66.6405 318.866 69.4677 313.658 72.2195C314.365 72.7401 315.11 73.2606 315.891 73.7068C316.672 74.1529 317.453 74.5987 318.122 74.9705C323.33 78.0942 328.537 81.1441 333.782 84.0818C339.027 87.0196 344.236 90.0685 349.443 93.1922C353.944 95.7953 358.445 98.3247 362.946 100.816C367.41 103.308 371.986 105.911 376.673 108.7C378.049 109.555 379.5 110.41 380.987 111.265C382.475 112.158 383.926 113.014 385.303 113.832C378.347 117.811 371.391 121.827 364.472 125.881C357.553 129.934 350.597 133.95 343.641 137.928C336.536 133.949 329.505 129.934 322.623 125.881C315.741 121.827 308.748 117.811 301.606 113.832C303.504 112.456 305.55 111.229 307.707 110.113C309.864 108.997 311.947 107.844 314.03 106.617C318.866 109.518 323.739 112.382 328.687 115.208C333.634 118.034 338.619 120.897 343.678 123.835C346.43 122.087 349.257 120.413 352.121 118.851C354.985 117.29 357.813 115.617 360.565 113.869C359.491 113.12 358.446 112.457 357.403 111.88L356.511 111.395C355.469 110.818 354.423 110.154 353.349 109.406C344.719 104.349 336.015 99.4025 327.348 94.531C318.643 89.6595 309.976 84.6396 301.346 79.4334C301.346 76.979 301.383 74.5614 301.457 72.1814C301.531 69.8017 301.494 67.5335 301.346 65.3025C308.451 61.1747 315.518 57.0464 322.549 52.9558C329.505 48.9025 336.536 44.8489 343.678 40.8699ZM435.743 40.8699C440.951 43.7705 446.159 46.7834 451.404 49.8328C456.649 52.8821 461.857 56.006 467.064 59.1297C468.813 60.208 470.598 61.2118 472.421 62.1043C474.206 63.034 475.881 64.1125 477.406 65.3025C475.323 66.3809 473.277 67.4965 471.269 68.6492C469.223 69.802 467.251 70.9923 465.354 72.2195C460.295 69.4677 455.31 66.6405 450.362 63.7771C445.415 60.9138 440.542 58.0875 435.706 55.3357C430.647 58.0875 425.7 60.9138 420.827 63.7771C415.954 66.6405 410.932 69.4677 405.725 72.2195C406.431 72.74 407.175 73.2607 407.956 73.7068C408.774 74.1531 409.519 74.5986 410.188 74.9705C415.396 78.0942 420.604 81.1441 425.849 84.0818C431.094 87.0196 436.302 90.0684 441.51 93.1922C446.011 95.7953 450.512 98.3247 455.013 100.816C459.476 103.308 464.051 105.911 468.738 108.7C470.115 109.555 471.566 110.41 473.054 111.265C474.542 112.158 475.993 113.014 477.369 113.832C470.413 117.811 463.456 121.827 456.537 125.881C449.618 129.934 442.662 133.95 435.706 137.928C428.601 133.95 421.571 129.934 414.689 125.881C407.808 121.827 400.814 117.811 393.672 113.832C395.569 112.456 397.615 111.229 399.772 110.113C401.93 108.997 404.014 107.844 406.097 106.617C410.932 109.518 415.806 112.382 420.753 115.208C425.7 118.034 430.684 120.897 435.743 123.835C438.496 122.087 441.323 120.413 444.188 118.851C447.052 117.289 449.879 115.617 452.632 113.869C451.558 113.12 450.512 112.457 449.47 111.88L448.577 111.395C447.535 110.818 446.489 110.154 445.415 109.406C436.785 104.349 428.08 99.4025 419.413 94.531C410.709 89.6596 402.042 84.6394 393.412 79.4334C393.412 76.979 393.449 74.5614 393.523 72.1814C393.598 69.8017 393.561 67.5335 393.412 65.3025C400.517 61.1748 407.585 57.0464 414.615 52.9558C421.571 48.9025 428.638 44.8488 435.743 40.8699ZM184.839 2.93924C194.576 8.60102 204.271 14.1998 213.908 19.7361L233.143 30.7674C242.78 36.3036 252.475 41.9025 262.212 47.5642V136.219L239.558 123.016V60.7654C235.094 57.9764 230.593 55.2991 226.055 52.6961C221.516 50.1302 217.016 47.5637 212.552 45.0349C207.79 42.5063 203.215 39.9029 198.825 37.1883C194.436 34.4738 189.972 31.834 185.509 29.3426C176.284 34.6603 167.17 39.8661 158.168 44.9607C149.166 50.0553 140.015 55.1133 130.79 60.1707C121.974 55.1504 113.083 50.0926 104.081 44.9607C95.0792 39.8662 86.1517 34.6602 77.373 29.3426C68.148 34.6602 59.0342 39.9031 49.9951 45.0721C40.9931 50.2411 32.065 55.4848 23.2861 60.8025V123.053C19.5291 125.285 15.6228 127.442 11.6426 129.561C7.66249 131.644 3.79411 133.689 0 135.623V3.60818C4.05463 5.57911 7.99757 7.62516 11.8662 9.78201C15.6976 11.9389 19.5291 14.2816 23.2861 16.8103V34.3992C32.5112 29.379 41.5132 24.2101 50.3291 18.8924C59.1451 13.5746 67.8871 8.25701 76.7031 2.93924C85.9283 7.95948 95.042 13.1283 104.044 18.4461C113.046 23.7638 121.974 29.0815 130.753 34.3621C139.978 29.3419 149.092 24.1729 158.131 18.8553C167.133 13.5376 176.06 8.21974 184.839 2.93924ZM725.296 0.0017395C738.613 7.58781 751.669 15.0626 764.354 22.4256C777.038 29.7886 789.946 37.2632 803.003 44.8494V133.913L780.274 120.637V58.1248C778.043 56.6002 775.699 55.2239 773.318 54.034C770.938 52.844 768.631 51.4687 766.362 49.9441C759.63 46.1511 752.897 42.2463 746.164 38.2674C739.431 34.2511 732.698 30.3837 725.965 26.5906C716.703 31.648 707.515 36.854 698.476 42.1717C689.436 47.5266 680.248 52.8441 670.985 58.1619V112.493C670.985 113.757 671.06 115.208 671.209 116.806C671.358 118.405 671.283 119.707 670.985 120.711C670.985 121.008 670.205 121.529 668.68 122.31C667.118 123.091 666.002 123.611 665.295 123.872C662.468 125.843 659.641 127.628 656.776 129.227C653.912 130.826 651.048 132.425 648.258 133.95V0.670685C652.052 2.64158 655.846 4.68687 659.641 6.76932C663.435 8.85177 667.229 11.0459 671.023 13.2771V31.6101C680.583 26.5528 689.809 21.3468 698.736 16.0291C707.552 10.6742 716.443 5.35663 725.296 0.0017395ZM551.431 46.076C546.372 48.8278 541.387 51.6548 536.439 54.5555C531.455 57.5304 526.47 60.4303 521.411 63.3308V97.4314C526.47 100.332 531.455 103.196 536.402 106.022C541.35 108.848 546.223 111.712 551.059 114.612C555.559 112.009 559.986 109.48 564.264 107.026C568.541 104.572 572.857 102.043 577.246 99.4402C577.395 99.3658 577.655 99.217 578.064 99.031C578.436 98.8451 578.846 98.6213 579.255 98.3982C579.664 98.1751 580.074 97.9153 580.408 97.6551C580.743 97.3951 580.965 97.1719 581.04 97.0232C581.189 96.6514 581.226 96.0189 581.151 95.201C581.077 94.3458 581.04 93.6018 581.04 92.8953V63.2937C576.204 60.3932 571.294 57.4931 566.235 54.5555C561.176 51.6549 556.229 48.8278 551.431 46.076Z" fill="white"/>
</svg>
