<svg width="484" height="519" viewBox="0 0 484 519" fill="none" xmlns="http://www.w3.org/2000/svg">
<path d="M244.5 80L80 176V344.5L244.5 438.5L403.5 344.5V176L244.5 80Z" fill="#222931" stroke="white" stroke-width="6"/>
<path d="M234 376.5L226.5 379L224 372L234 376.5ZM257 378.5L249.5 376L259.5 371.5L257 378.5ZM220.5 377L169 361.5L196 352.5L220.5 377ZM314.5 361L263 376.5L287.5 352L314.5 361ZM222 375L208.5 361.5L209.5 337.5L222 375ZM275 361L261.5 374.5L274 337L275 361ZM165 321.5L193.5 350L165 360L151.5 320L165 321.5ZM318.5 359.5L290 349.5L318.5 321L332 319.5L318.5 359.5ZM207 330.5L206 358.5L180 332.5L174.5 314.5L207 330.5ZM303.5 332L277.5 358L276.5 330L309 314L303.5 332ZM171 312.5L176 328.5L149.5 302L171 312.5ZM307.5 328L312.5 312L334 301.5L307.5 328ZM162 318.5L150.5 317L145.5 302L162 318.5ZM333 316.5L321.5 318L338 301.5L333 316.5Z" fill="white"/>
<path d="M253.5 318.5H228.5L234 309H248L253.5 318.5ZM208.478 285.743L215.478 297.867L210 307.381L197.5 285.73L208.478 285.743ZM273.818 307.377L268.341 297.863L275.341 285.739L286.318 285.727L273.818 307.377ZM279 275.5L261 305.5H223L205 275.5L223 244.5H261L279 275.5ZM226.5 275.213L234.041 288H249.959L257.5 275.213L249.959 262H234.041L226.5 275.213ZM215.478 251.513L208.478 263.638L197.5 263.65L210 242L215.478 251.513ZM286.228 263.65L275.25 263.638L268.25 251.513L273.728 242L286.228 263.65ZM248.5 241.5H234.5L229 232H254L248.5 241.5Z" fill="white"/>
<path d="M237.5 196L154 246.5V229.5L237.5 179V196ZM329 229.5V246.5L245.5 196V179L329 229.5ZM237.5 158V175L204.5 154V137L237.5 158ZM278.5 154L245.5 175V158L278.5 137V154Z" fill="white"/>
</svg>
